<?xml version="1.0" encoding="UTF-8"?>
<svg version="1.1" xmlns="http://www.w3.org/2000/svg" width="512" height="512">
<path d="M0 0 C168.96 0 337.92 0 512 0 C512 168.96 512 337.92 512 512 C343.04 512 174.08 512 0 512 C0 343.04 0 174.08 0 0 Z " fill="#FEFEFE" transform="translate(0,0)"/>
<path d="M0 0 C3.1080927 2.95554828 5.15281576 4.9275987 5.91015625 9.25390625 C6.57015625 9.25390625 7.23015625 9.25390625 7.91015625 9.25390625 C17.08030489 31.74028137 17.08030489 31.74028137 17.16015625 44.56640625 C17.19109375 45.79133789 17.19109375 45.79133789 17.22265625 47.04101562 C17.25952345 52.8245579 16.119786 56.92172078 13.91015625 62.25390625 C13.91015625 63.24390625 13.91015625 64.23390625 13.91015625 65.25390625 C14.80476563 65.43566406 15.699375 65.61742188 16.62109375 65.8046875 C23.83721087 67.30483978 30.89884961 68.97603935 37.91015625 71.25390625 C37.91015625 71.91390625 37.91015625 72.57390625 37.91015625 73.25390625 C39.08578125 73.43953125 40.26140625 73.62515625 41.47265625 73.81640625 C48.7314033 75.38680826 55.29014909 78.99187373 61.91015625 82.25390625 C61.91015625 82.91390625 61.91015625 83.57390625 61.91015625 84.25390625 C62.69390625 84.39828125 63.47765625 84.54265625 64.28515625 84.69140625 C66.91015625 85.25390625 66.91015625 85.25390625 68.91015625 86.25390625 C68.91015625 86.91390625 68.91015625 87.57390625 68.91015625 88.25390625 C69.52890625 88.37765625 70.14765625 88.50140625 70.78515625 88.62890625 C72.91015625 89.25390625 72.91015625 89.25390625 74.91015625 91.25390625 C76.58527574 91.91763284 78.2617674 92.58020501 79.9609375 93.1796875 C82.78187427 94.73431197 84.67061169 96.94346963 86.91015625 99.25390625 C88.03057312 100.29296051 89.15866991 101.32377449 90.29296875 102.34765625 C96.61433853 108.08655095 102.74284243 113.87263039 108.28515625 120.37890625 C108.74293457 120.91064453 109.20071289 121.44238281 109.67236328 121.99023438 C111.87016472 124.6415504 113.46251035 126.78879538 113.91015625 130.25390625 C114.57015625 130.25390625 115.23015625 130.25390625 115.91015625 130.25390625 C116.57015625 132.23390625 117.23015625 134.21390625 117.91015625 136.25390625 C118.57015625 136.25390625 119.23015625 136.25390625 119.91015625 136.25390625 C122.58713958 141.8186725 125.23650089 147.39562367 127.85058594 152.99023438 C128.65657976 154.71216403 129.47250947 156.42944689 130.29296875 158.14453125 C133.41946271 165.18529718 134.35209992 172.66633835 135.52880859 180.22167969 C135.92431545 182.53260205 135.92431545 182.53260205 136.98828125 185.80859375 C138.66985013 192.27873625 138.11775944 199.11759689 138.03515625 205.75390625 C138.02510694 207.16275406 138.01598454 208.5716088 138.0078125 209.98046875 C137.98435594 213.40512675 137.95153009 216.82942564 137.91015625 220.25390625 C138.90015625 220.25390625 139.89015625 220.25390625 140.91015625 220.25390625 C140.91015625 219.59390625 140.91015625 218.93390625 140.91015625 218.25390625 C151.1478599 215.81428325 160.39306005 214.85112384 170.91015625 215.25390625 C170.91015625 215.91390625 170.91015625 216.57390625 170.91015625 217.25390625 C171.63203125 217.27453125 172.35390625 217.29515625 173.09765625 217.31640625 C177.2090223 218.6868616 178.82173047 221.57506391 180.91015625 225.25390625 C184.02614923 234.60188518 181.49997022 245.78599624 179.91015625 255.25390625 C182.05697156 254.7791585 184.20258853 254.29898876 186.34765625 253.81640625 C188.14009766 253.41615234 188.14009766 253.41615234 189.96875 253.0078125 C192.78062485 252.55323877 192.78062485 252.55323877 193.91015625 251.25390625 C196.13560787 251.10063011 198.36710784 251.03187551 200.59765625 251.00390625 C201.81839844 250.978125 203.03914063 250.95234375 204.296875 250.92578125 C208.23073103 251.28301791 210.57838342 252.16606032 213.91015625 254.25390625 C217.29408734 259.32980289 217.01487433 265.35593128 215.91015625 271.25390625 C214.22786002 276.25979275 211.62420921 280.82866703 208.98730469 285.38476562 C208.0007322 287.09673274 207.06591373 288.83825564 206.13671875 290.58203125 C202.31525631 297.57907516 197.80020962 303.83169826 191.91015625 309.25390625 C191.25015625 309.25390625 190.59015625 309.25390625 189.91015625 309.25390625 C192.57682292 303.92057292 195.24348958 298.58723958 197.91015625 293.25390625 C198.57015625 293.25390625 199.23015625 293.25390625 199.91015625 293.25390625 C200.57015625 290.28390625 201.23015625 287.31390625 201.91015625 284.25390625 C202.57015625 284.25390625 203.23015625 284.25390625 203.91015625 284.25390625 C204.57015625 278.97390625 205.23015625 273.69390625 205.91015625 268.25390625 C201.95568065 266.27666845 201.03185825 266.00787357 196.91015625 266.44140625 C196.06453125 266.51746094 195.21890625 266.59351563 194.34765625 266.671875 C191.57780563 267.33326561 190.11090305 268.49425741 187.91015625 270.25390625 C187.25015625 270.25390625 186.59015625 270.25390625 185.91015625 270.25390625 C185.58015625 271.24390625 185.25015625 272.23390625 184.91015625 273.25390625 C182.58350494 274.55967995 180.34075908 275.68002067 177.91015625 276.75390625 C177.22824219 277.06287842 176.54632813 277.37185059 175.84375 277.69018555 C170.9545435 279.87328119 166.05239788 281.75275497 160.91015625 283.25390625 C159.85828125 283.62515625 158.80640625 283.99640625 157.72265625 284.37890625 C151.85232871 285.72619454 145.91323758 285.93751639 139.91015625 286.25390625 C140.66941406 287.218125 141.42867188 288.18234375 142.2109375 289.17578125 C143.2148674 290.45180431 144.21877234 291.72784701 145.22265625 293.00390625 C145.97192383 293.95523438 145.97192383 293.95523438 146.73632812 294.92578125 C147.70332408 296.15533903 148.66840051 297.38640939 149.63134766 298.61914062 C150.66903396 299.94566745 151.71595257 301.26496858 152.765625 302.58203125 C153.91015625 304.25390625 153.91015625 304.25390625 153.91015625 306.25390625 C154.57015625 306.25390625 155.23015625 306.25390625 155.91015625 306.25390625 C156.57015625 308.56390625 157.23015625 310.87390625 157.91015625 313.25390625 C158.57015625 313.25390625 159.23015625 313.25390625 159.91015625 313.25390625 C160.57015625 315.89390625 161.23015625 318.53390625 161.91015625 321.25390625 C162.57015625 321.25390625 163.23015625 321.25390625 163.91015625 321.25390625 C164.14089844 321.90875 164.37164062 322.56359375 164.609375 323.23828125 C166.45522993 328.40375671 168.41201889 333.47185744 170.59765625 338.50390625 C172.4386431 342.84095503 173.59020321 346.56126161 173.91015625 351.25390625 C174.57015625 351.25390625 175.23015625 351.25390625 175.91015625 351.25390625 C176.03132813 351.81980469 176.1525 352.38570313 176.27734375 352.96875 C176.44492187 353.70222656 176.6125 354.43570312 176.78515625 355.19140625 C176.94757813 355.92230469 177.11 356.65320313 177.27734375 357.40625 C177.73977148 359.46090919 177.73977148 359.46090919 179.91015625 360.25390625 C180.64091273 362.56796845 181.31153883 364.90219494 181.91015625 367.25390625 C182.57015625 367.25390625 183.23015625 367.25390625 183.91015625 367.25390625 C184.99609375 368.765625 184.99609375 368.765625 186.28515625 370.94140625 C191.00808021 378.31291784 197.30330623 385.06234879 203.7734375 390.94921875 C204.91015625 392.25390625 204.91015625 392.25390625 204.91015625 395.25390625 C202.02181622 397.36161384 200.5255323 398.25390625 196.91015625 398.25390625 C196.91015625 398.91390625 196.91015625 399.57390625 196.91015625 400.25390625 C188.56677822 402.23742631 179.30981792 401.85384181 170.91015625 400.25390625 C170.91015625 399.59390625 170.91015625 398.93390625 170.91015625 398.25390625 C169.87117188 398.00511719 168.8321875 397.75632812 167.76171875 397.5 C161.52478151 395.70660644 156.8767668 391.27134902 151.91015625 387.25390625 C151.39146973 386.83963379 150.8727832 386.42536133 150.33837891 385.99853516 C137.19778772 375.44916195 125.2172823 363.59253997 114.91015625 350.25390625 C114.26433594 349.45210938 113.61851562 348.6503125 112.953125 347.82421875 C103.91015625 336.51574836 103.91015625 336.51574836 103.91015625 332.25390625 C103.25015625 332.25390625 102.59015625 332.25390625 101.91015625 332.25390625 C101.64203125 331.57328125 101.37390625 330.89265625 101.09765625 330.19140625 C100.25488684 328.10666086 99.35247112 326.04558847 98.41015625 324.00390625 C96.87775829 320.5100389 96.16491155 317.02182325 95.53515625 313.26953125 C94.80096063 310.90175038 93.77006083 309.85099823 91.91015625 308.25390625 C91.6884375 308.82753906 91.46671875 309.40117187 91.23828125 309.9921875 C88.33457813 314.93702311 82.565083 318.00555128 77.91015625 321.25390625 C77.36246582 321.63772461 76.81477539 322.02154297 76.25048828 322.41699219 C63.14897178 331.48757127 48.86329506 337.84268751 33.91015625 343.25390625 C33.183125 343.55039062 32.45609375 343.846875 31.70703125 344.15234375 C25.85423719 346.40857352 19.87441168 346.9899733 13.67285156 347.6081543 C9.66382265 347.93623686 9.66382265 347.93623686 5.91015625 349.25390625 C3.36400616 349.48563452 0.836194 349.67285154 -1.71484375 349.81640625 C-2.42125 349.85958984 -3.12765625 349.90277344 -3.85546875 349.94726562 C-5.60002912 350.05335376 -7.34491072 350.15413514 -9.08984375 350.25390625 C-9.12722656 351.27871094 -9.16460937 352.30351562 -9.203125 353.359375 C-9.26881454 354.72008687 -9.33526084 356.08076236 -9.40234375 357.44140625 C-9.43618164 358.45170898 -9.43618164 358.45170898 -9.47070312 359.48242188 C-9.72678857 364.25492344 -10.64654423 367.81060673 -14.08984375 371.25390625 C-17.35865322 371.69563726 -18.66505925 371.57249463 -21.33984375 369.56640625 C-24.47026418 365.42977926 -24.20775069 360.98343813 -24.15234375 355.94140625 C-24.14332031 354.87277344 -24.13429687 353.80414063 -24.125 352.703125 C-24.10759766 351.49076172 -24.10759766 351.49076172 -24.08984375 350.25390625 C-24.64929688 350.27710938 -25.20875 350.3003125 -25.78515625 350.32421875 C-36.82057912 350.57260447 -47.47179633 348.56676741 -58.15234375 345.9375 C-61.11874286 345.24718106 -64.08141737 344.72397287 -67.08984375 344.25390625 C-67.08984375 343.59390625 -67.08984375 342.93390625 -67.08984375 342.25390625 C-67.73308594 342.17914063 -68.37632812 342.104375 -69.0390625 342.02734375 C-81.18725322 340.25970402 -91.52546977 334.22415367 -102.08984375 328.25390625 C-102.08984375 327.59390625 -102.08984375 326.93390625 -102.08984375 326.25390625 C-102.95609375 326.01285156 -103.82234375 325.77179688 -104.71484375 325.5234375 C-108.41993701 324.12973922 -110.96650139 322.36118321 -114.08984375 319.94140625 C-115.12882813 319.14089844 -116.1678125 318.34039062 -117.23828125 317.515625 C-120.23166976 315.14141685 -123.16774456 312.71462136 -126.08984375 310.25390625 C-126.74984375 309.92390625 -127.40984375 309.59390625 -128.08984375 309.25390625 C-128.19296875 310.42953125 -128.29609375 311.60515625 -128.40234375 312.81640625 C-128.91899333 317.07876528 -130.24067985 320.39478159 -132.08984375 324.25390625 C-132.74984375 324.25390625 -133.40984375 324.25390625 -134.08984375 324.25390625 C-134.44046875 325.51203125 -134.79109375 326.77015625 -135.15234375 328.06640625 C-141.07140185 345.76800255 -156.83468816 360.02439907 -169.65234375 373.00390625 C-170.26021729 373.62483154 -170.86809082 374.24575684 -171.49438477 374.88549805 C-172.98736142 376.38143402 -174.53425633 377.82318912 -176.08984375 379.25390625 C-176.74984375 379.25390625 -177.40984375 379.25390625 -178.08984375 379.25390625 C-178.08984375 379.91390625 -178.08984375 380.57390625 -178.08984375 381.25390625 C-180.03403009 382.92464444 -181.97660833 384.47369648 -184.02734375 386.00390625 C-184.619104 386.44984131 -185.21086426 386.89577637 -185.82055664 387.35522461 C-187.56985094 388.66476411 -189.32777694 389.96162124 -191.08984375 391.25390625 C-191.96640625 391.89972656 -192.84296875 392.54554688 -193.74609375 393.2109375 C-197.82289293 396.08005473 -200.95685036 397.99067582 -206.08984375 398.25390625 C-206.08984375 398.91390625 -206.08984375 399.57390625 -206.08984375 400.25390625 C-218.3577487 402.53630717 -228.37421532 401.68328331 -239.08984375 395.25390625 C-238.51263128 391.97416905 -237.59607191 390.41568971 -235.17578125 388.15234375 C-234.5828125 387.58499512 -233.98984375 387.01764648 -233.37890625 386.43310547 C-232.43144531 385.54002686 -232.43144531 385.54002686 -231.46484375 384.62890625 C-223.18110155 376.5643659 -217.42752113 368.4896376 -212.44921875 358.015625 C-211.08984375 355.25390625 -211.08984375 355.25390625 -209.5078125 352.66015625 C-208.20118862 350.44285511 -207.39256266 348.51694462 -206.65234375 346.06640625 C-204.29429587 338.66066212 -201.28203618 331.53285053 -198.078125 324.45703125 C-197.43223386 323.01717907 -196.80377696 321.56934467 -196.1953125 320.11328125 C-191.5615082 309.14989746 -185.39476882 298.84637455 -177.08984375 290.25390625 C-176.42984375 290.25390625 -175.76984375 290.25390625 -175.08984375 290.25390625 C-175.08984375 289.59390625 -175.08984375 288.93390625 -175.08984375 288.25390625 C-174.42984375 288.25390625 -173.76984375 288.25390625 -173.08984375 288.25390625 C-173.08984375 287.59390625 -173.08984375 286.93390625 -173.08984375 286.25390625 C-173.62609375 286.3003125 -174.16234375 286.34671875 -174.71484375 286.39453125 C-191.34259324 287.16028287 -210.20804077 280.16138561 -222.71484375 269.37890625 C-226.59850084 266.20200478 -229.27894483 265.56001567 -234.2421875 265.91015625 C-236.17607609 266.18199271 -236.17607609 266.18199271 -238.08984375 267.25390625 C-238.54962144 274.68697887 -238.17212425 280.41325062 -234.96484375 287.1953125 C-234.08984375 289.25390625 -234.08984375 289.25390625 -234.08984375 292.25390625 C-233.42984375 292.25390625 -232.76984375 292.25390625 -232.08984375 292.25390625 C-231.09984375 295.71890625 -231.09984375 295.71890625 -230.08984375 299.25390625 C-229.42984375 299.25390625 -228.76984375 299.25390625 -228.08984375 299.25390625 C-226.36719881 302.54940091 -224.79538443 305.5850947 -224.08984375 309.25390625 C-233.15538447 306.23205934 -238.8125388 293.27113348 -243.08984375 285.25390625 C-245.40676312 280.41563345 -247.08984375 276.65444986 -247.08984375 271.25390625 C-247.74984375 271.25390625 -248.40984375 271.25390625 -249.08984375 271.25390625 C-249.96285825 268.21243637 -250.28199959 265.41605366 -250.33984375 262.25390625 C-250.365625 261.40828125 -250.39140625 260.56265625 -250.41796875 259.69140625 C-250.01440117 256.69347564 -249.21007276 255.39323642 -247.08984375 253.25390625 C-238.9500019 249.80451138 -226.33418044 252.08128105 -218.08984375 254.25390625 C-218.08984375 254.91390625 -218.08984375 255.57390625 -218.08984375 256.25390625 C-216.10984375 256.58390625 -214.12984375 256.91390625 -212.08984375 257.25390625 C-212.30640625 256.41730469 -212.52296875 255.58070313 -212.74609375 254.71875 C-215.24717621 244.26283582 -217.50510926 232.48404757 -213.08984375 222.25390625 C-211.46875 220.390625 -211.46875 220.390625 -209.65234375 218.94140625 C-209.05550781 218.45027344 -208.45867187 217.95914063 -207.84375 217.453125 C-202.02364867 213.47367932 -192.56138419 214.47109781 -185.82226562 215.65087891 C-181.19100496 216.6618589 -176.63613497 217.91570752 -172.08984375 219.25390625 C-172.10031738 218.60542725 -172.11079102 217.95694824 -172.12158203 217.28881836 C-172.34790018 201.10993518 -172.32809468 186.00113532 -167.14453125 170.48828125 C-166.06118765 167.16602754 -165.20520946 163.82628806 -164.33984375 160.44140625 C-159.59615068 143.82925154 -149.99156114 129.12195558 -138.265625 116.5859375 C-136.17329834 114.34335399 -134.19815769 112.03018175 -132.21484375 109.69140625 C-127.68005369 104.57847563 -122.47676643 100.43314125 -117.08984375 96.25390625 C-116.42210937 95.72023438 -115.754375 95.1865625 -115.06640625 94.63671875 C-106.15643697 87.68167944 -96.28554499 82.07935264 -86.08984375 77.25390625 C-85.15269531 76.77179688 -84.21554688 76.2896875 -83.25 75.79296875 C-76.73089602 72.55396879 -70.29658899 70.26469397 -63.27734375 68.37890625 C-62.4891626 68.16363281 -61.70098145 67.94835937 -60.88891602 67.7265625 C-55.82214944 66.43759672 -51.31554101 66.05131365 -46.08984375 66.25390625 C-46.37859375 65.72667969 -46.66734375 65.19945313 -46.96484375 64.65625 C-52.17185235 53.2478388 -52.2400765 37.40855301 -48.40234375 25.56640625 C-47.65622616 23.78501823 -46.88566818 22.01365004 -46.08984375 20.25390625 C-45.75082031 19.26648438 -45.41179687 18.2790625 -45.0625 17.26171875 C-41.74205505 7.97392612 -35.82206854 -0.17320865 -27.27734375 -5.37109375 C-17.03095905 -9.79110284 -8.29775798 -6.93289312 0 0 Z " fill="#2F328E" transform="translate(271.08984375,58.74609375)"/>
<path d="M0 0 C1.32 0 2.64 0 4 0 C5.74609375 1.79296875 5.74609375 1.79296875 7.4375 4.1875 C12.14208718 10.92679103 12.14208718 10.92679103 19 15 C19.38671875 14.36191406 19.7734375 13.72382813 20.171875 13.06640625 C20.69265625 12.24011719 21.2134375 11.41382813 21.75 10.5625 C22.26046875 9.73878906 22.7709375 8.91507812 23.296875 8.06640625 C25 6 25 6 26.890625 4.90234375 C29 5 29 5 31.34375 7.07421875 C32.65859375 8.52248047 32.65859375 8.52248047 34 10 C36.11646658 11.99596801 38.30422462 13.90456988 40.5 15.8125 C41.33337891 16.56563477 41.33337891 16.56563477 42.18359375 17.33398438 C44.5096657 19.34535247 46.50147267 20.85868517 49.48046875 21.703125 C54.1342884 20.40438463 57.22498717 16.53209204 60.56445312 13.17773438 C64.88697946 9.14178437 64.88697946 9.14178437 68.05834961 8.73779297 C72.43064578 9.13252483 75.46877777 10.52245774 78.9375 13.25 C82.90789007 16.23701172 86.89970867 18.72708615 91.28515625 21.0546875 C93 22 93 22 94 23 C101.04114392 22.71586809 104.91162543 19.6526956 110.30664062 15.59375 C114.93225035 12.28217925 118.26889506 11.12040136 124 11 C127.0625 12.75 127.0625 12.75 130 15 C132.32481174 16.01965427 134.65794699 17.02059602 137 18 C138.175625 18.804375 138.175625 18.804375 139.375 19.625 C143.17917631 21.61766378 146.71215792 22.1557204 151 22 C154.17081024 20.98580955 156.89672185 19.44751991 159.75 17.75 C160.47832031 17.34136719 161.20664062 16.93273437 161.95703125 16.51171875 C164.95827953 14.81772925 167.86209795 13.09485748 170.703125 11.140625 C173 10 173 10 175.44921875 10.12109375 C178.44551715 11.15350897 181.05502533 12.50103844 183.8125 14.0625 C184.78832031 14.61035156 185.76414062 15.15820312 186.76953125 15.72265625 C187.50558594 16.14417969 188.24164063 16.56570313 189 17 C189 17.66 189 18.32 189 19 C189.94875 19.309375 190.8975 19.61875 191.875 19.9375 C195 21 195 21 197 22 C203.45287219 23.11742404 207.77678382 19.42287764 212.9375 16.0625 C224.46932687 8.57152115 224.46932687 8.57152115 230 9 C233.18414699 11.09581643 235.56361945 13.96565263 238.10546875 16.7734375 C241.62824632 20.42475452 241.62824632 20.42475452 246.6328125 21.1015625 C250.12177891 19.9601605 251.79591848 18.93431844 254.375 16.375 C255.13039063 15.66214844 255.88578125 14.94929688 256.6640625 14.21484375 C257.43492187 13.48394531 258.20578125 12.75304687 259 12 C260.56068157 10.61978812 262.14335062 9.26391984 263.75 7.9375 C264.44609375 7.34839844 265.1421875 6.75929688 265.859375 6.15234375 C268 5 268 5 270.765625 5.31640625 C271.50296875 5.54199219 272.2403125 5.76757812 273 6 C273.99 8.97 274.98 11.94 276 15 C281.57917837 13.40016301 284.42578957 9.44375504 287.98242188 5.16796875 C289.24535217 3.70897515 290.61811904 2.34687056 292 1 C293.32 1 294.64 1 296 1 C296.81514025 16.91787766 296.81514025 16.91787766 292 24 C291.34 24.33 290.68 24.66 290 25 C289.67 24.34 289.34 23.68 289 23 C284.1009995 23.40897518 282.3004017 25.39206367 279.1875 29.0625 C278.39730469 29.98160156 277.60710937 30.90070313 276.79296875 31.84765625 C275.90544922 32.91306641 275.90544922 32.91306641 275 34 C272.07949096 32.68761935 270.82277457 31.79945543 268.625 29.3125 C266.23418054 26.68535083 266.23418054 26.68535083 263.2109375 27.03515625 C258.63709832 28.40953372 255.83969334 31.33800621 252.5 34.58203125 C249.93453479 36.91366499 248.55007416 37.99494019 245.02734375 38.02734375 C240.41366178 36.46166845 236.48236463 33.98764768 232.31640625 31.49609375 C227.9323454 29.51836076 224.37801402 29.67864675 219.6875 30.3125 C217.61194766 30.97403736 217.61194766 30.97403736 216 34 C212.875 34.6875 212.875 34.6875 210 35 C209.67 35.99 209.34 36.98 209 38 C208.401875 38.144375 207.80375 38.28875 207.1875 38.4375 C204.78945141 38.84118488 204.78945141 38.84118488 203.0625 41.125 C201 43 201 43 198.625 43 C195.3543986 41.75405661 192.77279183 40.12795652 190 38 C190 37.34 190 36.68 190 36 C188.68 35.34 187.36 34.68 186 34 C186 33.34 186 32.68 186 32 C185.113125 31.855625 184.22625 31.71125 183.3125 31.5625 C180 31 180 31 177.625 30.25 C174.25004981 29.92857617 172.04634144 30.90511472 168.96484375 32.2109375 C167 33 167 33 164.80859375 33.48046875 C164.21175781 33.65191406 163.61492187 33.82335937 163 34 C162.71125 34.639375 162.4225 35.27875 162.125 35.9375 C160.4781163 38.95678679 158.17163905 38.98777477 155 40 C154.67 40.99 154.34 41.98 154 43 C150.86128812 44.56935594 148.46144178 44.35201103 145 44 C142.5 41.75 142.5 41.75 140 39 C136.95455305 36.92035451 133.74371436 35.29402661 130.3125 33.9375 C128 33 128 33 126.25 31.3125 C123.37820695 29.63728739 121.10728133 29.56026358 117.84375 30.01171875 C111.84621416 32.09602722 106.75555727 36.23266986 101.68823242 39.984375 C99.78387956 41.13001606 98.18866499 41.63766202 96 42 C91.98636357 40.9152334 88.99558719 38.6655361 85.69921875 36.234375 C83.54604357 34.67022935 81.31364997 33.31315269 79 32 C78.38125 31.608125 77.7625 31.21625 77.125 30.8125 C72.72125814 29.12871635 68.9372683 29.67621641 64.5625 31.1875 C61.18549877 32.90562343 58.16321093 34.80903065 55.08984375 37.01171875 C52.11279168 38.41955833 50.26737026 38.46561038 47 38 C44.63208016 36.43867086 42.70889907 34.99279102 40.625 33.125 C40.07972656 32.66480469 39.53445312 32.20460938 38.97265625 31.73046875 C37.5985533 30.54233462 36.29282911 29.27609346 35 28 C35 27.34 35 26.68 35 26 C29.89607175 27.27598206 28.20402923 28.96912452 25 33 C22.5625 34.125 22.5625 34.125 20 34 C16.29347306 31.03477845 13.76814243 27.40048832 11.2109375 23.453125 C9.9616727 21.694805 9.9616727 21.694805 7 21 C7 21.99 7 22.98 7 24 C4.625 23.375 4.625 23.375 2 22 C-0.17921866 17.17038027 -0.24673624 12.80347229 -0.125 7.625 C-0.11597656 6.88894531 -0.10695313 6.15289062 -0.09765625 5.39453125 C-0.07430144 3.5962112 -0.03843836 1.79806089 0 0 Z " fill="#CC0259" transform="translate(106,294)"/>
<path d="M0 0 C0 0.66 0 1.32 0 2 C0.7425 2.0825 1.485 2.165 2.25 2.25 C6.13964476 3.31081221 7.98010921 5.24418802 9.99609375 8.71484375 C10.32738281 9.32457031 10.65867187 9.93429688 11 10.5625 C12.81954571 13.68984419 13.97220172 15.1616939 17 17 C17.495 15.515 17.495 15.515 18 14 C21.47716347 12.12768121 23.89314069 10.90375136 27.875 11.25 C30 12 30 12 31 13 C31.375 15.875 31.375 15.875 31 19 C28.6875 20.625 28.6875 20.625 26 22 C24.98199424 23.31963709 23.97751635 24.65009646 23 26 C22.34 26 21.68 26 21 26 C21.495 31.94 21.495 31.94 22 38 C22.66 38 23.32 38 24 38 C24.05425226 40.39614126 24.09379027 42.79103853 24.125 45.1875 C24.14175781 45.86103516 24.15851563 46.53457031 24.17578125 47.22851562 C24.21538674 51.28807807 23.80020002 54.34998815 22 58 C21.34 58 20.68 58 20 58 C19.7525 58.721875 19.505 59.44375 19.25 60.1875 C17.87122087 63.28975304 16.29054328 65.50122551 14 68 C8.90282265 69.69905912 3.71426037 69.94141283 -1.41015625 68.1640625 C-6.41934979 65.60361709 -9.89108106 62.33334337 -13.39453125 57.96484375 C-14.98876865 55.93363081 -14.98876865 55.93363081 -17.0078125 54.0703125 C-26.0725917 44.65005176 -28.23379416 32.13585499 -28.3125 19.625 C-28.31813965 18.75625244 -28.3237793 17.88750488 -28.32958984 16.99243164 C-28.2542702 10.4147291 -27.45402933 6.01576693 -22.625 1.25 C-22.03976562 0.65703125 -21.45453125 0.0640625 -20.8515625 -0.546875 C-14.61541 -5.44107063 -6.41423436 -3.20711718 0 0 Z " fill="#6D1E7A" transform="translate(363,194)"/>
<path d="M0 0 C0 0.66 0 1.32 0 2 C0.556875 2.0825 1.11375 2.165 1.6875 2.25 C4.88294629 3.28636096 6.65216165 4.58870656 9 7 C9.8125 10.75 9.8125 10.75 10 14 C10.66 14 11.32 14 12 14 C12.55541055 22.47926775 12.16527282 29.89939843 9.75 38.0625 C9.44316284 39.11425415 9.44316284 39.11425415 9.13012695 40.18725586 C7.7085475 44.66805279 5.71140896 48.12257361 3 52 C2.62875 53.11375 2.2575 54.2275 1.875 55.375 C-0.25797753 60.73723401 -5.49066494 63.72307405 -10 67 C-10.68191406 67.57234375 -11.36382812 68.1446875 -12.06640625 68.734375 C-14 70 -14 70 -18 70 C-18 70.66 -18 71.32 -18 72 C-26.97603486 72.78431373 -26.97603486 72.78431373 -30.9375 69.75 C-31.9584375 68.38875 -31.9584375 68.38875 -33 67 C-33.598125 66.278125 -34.19625 65.55625 -34.8125 64.8125 C-36 63 -36 63 -36 61 C-36.99 60.67 -37.98 60.34 -39 60 C-40.34632052 55.96103843 -40.18417548 52.2287853 -40.1875 48 C-40.19974609 47.18015625 -40.21199219 46.3603125 -40.22460938 45.515625 C-40.22654297 44.72671875 -40.22847656 43.9378125 -40.23046875 43.125 C-40.23457764 42.40570313 -40.23868652 41.68640625 -40.24291992 40.9453125 C-40 39 -40 39 -38 36 C-37.60986284 34.0103005 -37.26797351 32.00980131 -37 30 C-37.804375 29.773125 -38.60875 29.54625 -39.4375 29.3125 C-40.7059375 28.6628125 -40.7059375 28.6628125 -42 28 C-42.8125 25.375 -42.8125 25.375 -43 23 C-44.32 22.67 -45.64 22.34 -47 22 C-47.25 16.375 -47.25 16.375 -45 13 C-41.49817474 12.3996871 -39.72751561 13.1195107 -36.4375 14.5625 C-33.31743154 16.17316701 -33.31743154 16.17316701 -31.04296875 15.8515625 C-28.28667448 14.70266738 -26.87764801 13.01836875 -24.875 10.8125 C-17.39780671 3.15174223 -10.95115072 -1.25821732 0 0 Z " fill="#662178" transform="translate(162,191)"/>
<path d="M0 0 C6.15618202 0.19965996 9.72330328 3.6439715 13.875 7.875 C20.25188033 15.52442852 22.01612304 24.72998543 21.6171875 34.50390625 C21.06191516 38.84566334 20.66544606 40.52879495 17.25 43.375 C13.75417173 44.16495108 10.75261601 44.11329651 7.25 43.375 C4.5625 41.5 4.5625 41.5 2.25 38.375 C1.68539063 37.65828125 1.12078125 36.9415625 0.5390625 36.203125 C-5.53541905 28.15507772 -9.521374 19.79039322 -9.08203125 9.5390625 C-8.23964704 4.04869953 -5.48368661 0.54836866 0 0 Z " fill="#403190" transform="translate(355.75,204.625)"/>
<path d="M0 0 C1 2 1 2 0.375 5.0625 C-0.15860276 10.66532893 0.84121646 15.29703557 4.41015625 19.765625 C8.39018216 23.4916067 12.71257669 25.28888378 17.86328125 26.9453125 C20.45262756 28.22341763 21.00299021 29.34497947 22 32 C17.50587538 35.93235904 12.15240162 40 6 40 C6 40.66 6 41.32 6 42 C-6.26790495 44.28240092 -16.28437157 43.42937706 -27 37 C-26.42278753 33.7202628 -25.50622816 32.16178346 -23.0859375 29.8984375 C-22.49288818 29.33084717 -21.89983887 28.76325684 -21.28881836 28.1784668 C-20.6572583 27.58332275 -20.02569824 26.98817871 -19.375 26.375 C-11.20937005 18.44423364 -5.28378801 10.08059094 0 0 Z " fill="#D40C5F" transform="translate(59,417)"/>
<path d="M0 0 C2.29296875 1.40625 2.29296875 1.40625 4 4 C4.6682036 7.38200734 4.71377354 10.68495771 4.6875 14.125 C4.68169922 15.07262207 4.67589844 16.02024414 4.66992188 16.99658203 C4.40767764 24.75553251 2.73002255 29.57384228 -3 35 C-3.66 35.70640625 -4.32 36.4128125 -5 37.140625 C-8.20949273 40.32504357 -10.18080952 41.84726957 -14.6875 42.6875 C-18.67834124 41.8592122 -20.22595085 40.98887451 -23 38 C-23.67285673 35.08682324 -23.56631815 32.28686243 -23.4375 29.3125 C-23.41139648 28.1061792 -23.41139648 28.1061792 -23.38476562 26.87548828 C-23.21100898 21.37653589 -22.56771934 16.29105277 -21 11 C-20.34 11 -19.68 11 -19 11 C-18.79375 10.29875 -18.5875 9.5975 -18.375 8.875 C-14.50768146 0.7887885 -9.00951914 -2.09587001 0 0 Z " fill="#393695" transform="translate(155,206)"/>
<path d="M0 0 C1.56640625 1.38671875 1.56640625 1.38671875 2.56640625 4.38671875 C1.92703125 4.22171875 1.28765625 4.05671875 0.62890625 3.88671875 C-4.96016637 2.9742171 -10.45003035 2.32074387 -15.43359375 5.38671875 C-19.22891068 11.37932443 -19.05364597 18.5419865 -18.43359375 25.38671875 C-17.56340276 28.67748467 -16.51150733 31.8055724 -15.30859375 34.98828125 C-14.43359375 37.38671875 -14.43359375 37.38671875 -14.43359375 39.38671875 C-13.77359375 39.38671875 -13.11359375 39.38671875 -12.43359375 39.38671875 C-11.87671875 40.23234375 -11.31984375 41.07796875 -10.74609375 41.94921875 C-6.88056216 47.93485467 -6.88056216 47.93485467 -1.43359375 52.38671875 C2.96379554 52.96721523 7.15921201 52.80424241 11.56640625 52.38671875 C11.56640625 51.72671875 11.56640625 51.06671875 11.56640625 50.38671875 C14.04140625 49.89171875 14.04140625 49.89171875 16.56640625 49.38671875 C16.94140625 51.57421875 16.94140625 51.57421875 16.56640625 54.38671875 C13.82523296 57.72057815 12.20735315 59.12659828 7.9296875 59.8046875 C2.46726629 59.96118251 -1.90725327 59.67860273 -6.43359375 56.38671875 C-15.81356049 47.21753778 -24.25292617 34.26634798 -24.6015625 20.91796875 C-24.61344713 19.24091489 -24.6198096 17.56381423 -24.62109375 15.88671875 C-24.63333984 15.04496094 -24.64558594 14.20320313 -24.65820312 13.3359375 C-24.67155119 7.68525788 -24.29586578 3.62144518 -20.55859375 -0.86328125 C-14.13363778 -6.15442146 -6.36735509 -4.1493723 0 0 Z " fill="#452589" transform="translate(363.43359375,198.61328125)"/>
<path d="M0 0 C4.16749984 0.97371492 7.01192289 3.13990809 9.5078125 6.5859375 C14.64396775 18.63878182 11.09955241 31.79671351 6.60546875 43.38671875 C5.474256 45.65316992 4.35677251 46.88489429 2.5078125 48.5859375 C1.48305822 49.81183719 0.46253141 51.04127798 -0.5546875 52.2734375 C-11.66659153 64.85603471 -11.66659153 64.85603471 -19.6171875 65.7109375 C-24.11176888 65.31979513 -26.16483829 63.46983036 -29.1171875 60.1484375 C-32.7454516 55.04118222 -33.28396625 51.72222284 -32.4921875 45.5859375 C-30.43458545 48.15794006 -28.38122435 50.72953687 -26.3671875 53.3359375 C-24.69021109 55.65393355 -24.69021109 55.65393355 -22.4921875 56.5859375 C-17.41742428 57.01600218 -13.732154 56.97054901 -9.2890625 54.1171875 C0.1019962 46.11437226 4.65943175 36.1468705 5.8515625 24.1171875 C6.1001228 20.94113918 6.32102946 17.76616445 6.5078125 14.5859375 C5.8478125 14.5859375 5.1878125 14.5859375 4.5078125 14.5859375 C3.85398472 13.26650125 3.2347657 11.92983301 2.6328125 10.5859375 C1.44076266 8.29511356 1.44076266 8.29511356 -0.4921875 6.5859375 C-4.56770705 5.86328997 -8.39472403 6.11541538 -12.4921875 6.5859375 C-9.04195695 1.06556862 -6.57409814 -0.41210764 0 0 Z " fill="#3F258B" transform="translate(158.4921875,194.4140625)"/>
<path d="M0 0 C0 0.66 0 1.32 0 2 C1.32 2.66 2.64 3.32 4 4 C4 4.99 4 5.98 4 7 C3.05640625 6.45859375 3.05640625 6.45859375 2.09375 5.90625 C-4.64064164 2.25507381 -9.22613289 0.62088283 -16.8125 2.8125 C-19.69522247 4.37740648 -21.57376178 5.62375469 -22.56762695 8.83276367 C-23.32610497 12.63457585 -23.18453876 16.44808079 -23.1875 20.3125 C-23.19974609 21.14201172 -23.21199219 21.97152344 -23.22460938 22.82617188 C-23.24415431 31.08064767 -21.04235327 37.46017543 -17.125 44.625 C-16.61646484 45.58792969 -16.61646484 45.58792969 -16.09765625 46.5703125 C-13.41904519 51.54051098 -10.78295418 55.81136388 -6 59 C-6 59.66 -6 60.32 -6 61 C-0.46298802 63.39438356 5.06660108 63.83879895 11 63 C15.10329268 61.22135499 17.17165449 58.11406641 18.8125 54.0625 C19.88017747 50.75269984 20.56809765 47.45521877 21 44 C21.33 44 21.66 44 22 44 C22.497752 53.1623238 20.53339187 59.10931803 15.28125 66.6171875 C12.86612095 69.22375971 9.73219281 69.23644919 6.375 69.375 C-0.3830677 69.27662929 -5.2212255 66.77328285 -9.9765625 62.02734375 C-11.14455224 60.69782352 -12.28734476 59.34540963 -13.39453125 57.96484375 C-14.98876865 55.93363081 -14.98876865 55.93363081 -17.0078125 54.0703125 C-26.0725917 44.65005176 -28.23379416 32.13585499 -28.3125 19.625 C-28.31813965 18.75625244 -28.3237793 17.88750488 -28.32958984 16.99243164 C-28.2542702 10.4147291 -27.45402933 6.01576693 -22.625 1.25 C-22.03976562 0.65703125 -21.45453125 0.0640625 -20.8515625 -0.546875 C-14.61541 -5.44107063 -6.41423436 -3.20711718 0 0 Z " fill="#A3125C" transform="translate(363,194)"/>
<path d="M0 0 C0.89203125 0.01804688 1.7840625 0.03609375 2.703125 0.0546875 C3.71632813 0.08949219 3.71632813 0.08949219 4.75 0.125 C4.75 0.785 4.75 1.445 4.75 2.125 C5.306875 2.2075 5.86375 2.29 6.4375 2.375 C9.63294629 3.41136096 11.40216165 4.71370656 13.75 7.125 C14.5625 10.875 14.5625 10.875 14.75 14.125 C15.41 14.125 16.07 14.125 16.75 14.125 C17.30541055 22.60426775 16.91527282 30.02439843 14.5 38.1875 C14.19316284 39.23925415 14.19316284 39.23925415 13.88012695 40.31225586 C12.4585475 44.79305279 10.46140896 48.24757361 7.75 52.125 C7.37875 53.23875 7.0075 54.3525 6.625 55.5 C4.49202247 60.86223401 -0.74066494 63.84807405 -5.25 67.125 C-5.93191406 67.69734375 -6.61382812 68.2696875 -7.31640625 68.859375 C-9.25 70.125 -9.25 70.125 -13.25 70.125 C-13.25 70.785 -13.25 71.445 -13.25 72.125 C-22.15570116 72.90316806 -22.15570116 72.90316806 -26.0625 70.125 C-31.56835299 62.57411589 -34.42072508 57.46963223 -34.3125 47.9375 C-34.30798828 47.18791016 -34.30347656 46.43832031 -34.29882812 45.66601562 C-34.28706354 43.81897617 -34.26912865 41.97197787 -34.25 40.125 C-33.26 39.63 -33.26 39.63 -32.25 39.125 C-32.21261719 40.12660156 -32.17523438 41.12820312 -32.13671875 42.16015625 C-31.81133555 52.05074413 -31.81133555 52.05074413 -28.25 61.125 C-27.93417969 61.69992188 -27.61835938 62.27484375 -27.29296875 62.8671875 C-25.65734735 65.37552562 -23.95002657 66.90220673 -21.08984375 67.8125 C-15.23108016 68.40673276 -11.9794326 66.62251304 -7.4375 63 C-3.65575097 59.60707868 -0.33761421 56.14825488 2.75 52.125 C3.40742188 51.52042969 4.06484375 50.91585937 4.7421875 50.29296875 C7.00179527 47.85311989 7.86309366 45.88112703 8.9375 42.75 C9.26105469 41.83476562 9.58460938 40.91953125 9.91796875 39.9765625 C11.52025545 34.48515738 11.88660506 29.33469161 11.875 23.625 C11.87757813 22.3565625 11.88015625 21.088125 11.8828125 19.78125 C11.76158549 16.44394181 11.51031685 13.37584193 10.75 10.125 C8.90017528 8.86672877 8.90017528 8.86672877 6.75 8.125 C6.16412109 7.36316406 6.16412109 7.36316406 5.56640625 6.5859375 C2.72579954 4.30123447 0.12576865 4.83942839 -3.4375 4.9375 C-5.34595703 4.97810547 -5.34595703 4.97810547 -7.29296875 5.01953125 C-8.26878906 5.05433594 -9.24460938 5.08914062 -10.25 5.125 C-9.25 2.125 -9.25 2.125 -7.515625 0.9453125 C-4.86680319 -0.01374367 -2.80934533 -0.07393014 0 0 Z " fill="#B10E52" transform="translate(157.25,190.875)"/>
<path d="M0 0 C0.70511719 0.70898438 1.41023438 1.41796875 2.13671875 2.1484375 C4.0362629 4.04999175 5.95621844 5.92708176 7.89453125 7.7890625 C8.86722419 8.73433725 9.83988024 9.67964995 10.8125 10.625 C11.56563477 11.34042969 11.56563477 11.34042969 12.33398438 12.0703125 C13.6136883 13.32390002 14.81360139 14.6577697 16 16 C16 16.99 16 17.98 16 19 C13.11165997 21.10770759 11.61537605 22 8 22 C8 22.66 8 23.32 8 24 C-0.34337803 25.98352006 -9.60033833 25.59993556 -18 24 C-17.41748533 18.757368 -12.99999695 15.95951732 -9.39453125 12.5 C-8.54246094 11.675 -7.69039063 10.85 -6.8125 10 C-5.95269531 9.175 -5.09289062 8.35 -4.20703125 7.5 C-2.03107715 5.03520243 -0.99275683 3.10583142 0 0 Z " fill="#D40E5E" transform="translate(460,435)"/>
<path d="M0 0 C3.65546885 0.91386721 4.77340221 1.41851135 6.75 4.6875 C7.26266807 9.51091228 7.28963497 14.06859508 5.75 18.6875 C5.09 18.6875 4.43 18.6875 3.75 18.6875 C3.564375 19.38875 3.37875 20.09 3.1875 20.8125 C1.19570483 24.79609033 -1.5319817 27.27038659 -5.25 29.6875 C-8 30.3125 -8 30.3125 -10.25 29.6875 C-13.14183095 26.64236717 -13.63874588 24.52160277 -13.5625 20.375 C-13.3127643 13.41014875 -12.68550974 8.70790148 -7.5 3.75 C-4.80082701 1.57892607 -3.44414885 0.72856995 0 0 Z " fill="#F5F5FA" transform="translate(148.25,211.3125)"/>
<path d="M0 0 C0.33 0.66 0.66 1.32 1 2 C1.66 2 2.32 2 3 2 C4.32421875 3.5390625 4.32421875 3.5390625 5.6875 5.625 C6.14511719 6.29789062 6.60273438 6.97078125 7.07421875 7.6640625 C8.36994794 10.93345514 8.05813086 12.65562656 7 16 C5.28951015 18.06923353 3.70736743 19.77122772 1.75 21.5625 C0.79609375 22.47128906 -0.1578125 23.38007813 -1.140625 24.31640625 C-2.08421875 25.20199219 -3.0278125 26.08757812 -4 27 C-5.32257813 28.37478516 -5.32257813 28.37478516 -6.671875 29.77734375 C-9 32 -9 32 -12 33 C-16.89867524 31.32953125 -21.12975267 28.38646642 -25 25 C-24.03057858 22.54073093 -23.46193391 21.25875966 -21.1171875 19.9453125 C-20.37726563 19.67460937 -19.63734375 19.40390625 -18.875 19.125 C-11.49118703 16.08600302 -5.5936836 11.54251907 -1 5 C-0.13457301 2.27886497 -0.13457301 2.27886497 0 0 Z " fill="#AC2779" transform="translate(452,424)"/>
<path d="M0 0 C5.775581 1.11068865 9.03743318 4.13261007 12.6875 8.625 C15.40147921 13.81043262 14.55690271 19.95582496 14.25 25.625 C13.59 25.625 12.93 25.625 12.25 25.625 C11.92 26.615 11.59 27.605 11.25 28.625 C8.16979147 29.05730997 6.22806275 29.29545392 3.25 28.625 C-1.82976753 24.76359064 -4.73826051 19.92026794 -5.75 13.625 C-6.1583436 9.6776785 -6.03914098 6.39604262 -4.625 2.625 C-2.75 0.625 -2.75 0.625 0 0 Z " fill="#F6F5FA" transform="translate(359.75,211.375)"/>
<path d="M0 0 C3.15259632 0.62551514 4.83100796 2.05854277 6.96875 4.390625 C7.78125 6.640625 7.78125 6.640625 7.96875 8.390625 C8.62875 8.390625 9.28875 8.390625 9.96875 8.390625 C10.3898554 23.52702476 8.30295068 34.27913031 -2.21484375 45.66015625 C-6.00125337 49.26742391 -9.76108911 51.5577376 -15.09375 51.953125 C-20.15025149 51.23076764 -21.54472153 50.04317863 -25.03125 46.390625 C-27.57181711 42.92621531 -27.33101466 39.58733028 -27.03125 35.390625 C-26.015625 33.171875 -26.015625 33.171875 -25.03125 31.390625 C-24.86109375 32.22207031 -24.6909375 33.05351562 -24.515625 33.91015625 C-24.27328125 34.99683594 -24.0309375 36.08351562 -23.78125 37.203125 C-23.54921875 38.28207031 -23.3171875 39.36101562 -23.078125 40.47265625 C-21.90322846 43.74746117 -21.03575335 44.72832034 -18.03125 46.390625 C-14.74743871 47.31070228 -14.74743871 47.31070228 -11.03125 46.390625 C-5.03165832 42.4080487 0.09800421 37.0493963 2.96875 30.390625 C3.57583629 26.77582812 3.53733892 23.29569266 3.40625 19.640625 C3.40044922 18.70863281 3.39464844 17.77664062 3.38867188 16.81640625 C3.31357134 10.81974471 3.31357134 10.81974471 0.96875 5.390625 C-1.43670638 4.18789681 -2.98121953 4.28991028 -5.65625 4.328125 C-6.47351563 4.33714844 -7.29078125 4.34617188 -8.1328125 4.35546875 C-8.75929687 4.36707031 -9.38578125 4.37867188 -10.03125 4.390625 C-7.15396033 0.55423877 -4.80525457 -0.25102076 0 0 Z " fill="#991560" transform="translate(155.03125,200.609375)"/>
<path d="M0 0 C1.134375 0.020625 2.26875 0.04125 3.4375 0.0625 C3.7675 1.0525 4.0975 2.0425 4.4375 3.0625 C3.179375 3.330625 1.92125 3.59875 0.625 3.875 C-2.55210977 4.67208408 -4.64860587 5.24794981 -6.5625 8.0625 C-9.33566231 16.38198693 -7.30937467 24.38304551 -3.5625 32.0625 C-0.48680802 37.13632134 2.85444382 42.23479937 7.4375 46.0625 C10.00867914 46.75124383 10.00867914 46.75124383 12.6875 46.8125 C13.57953125 46.86921875 14.4715625 46.9259375 15.390625 46.984375 C16.40382813 47.02304688 16.40382813 47.02304688 17.4375 47.0625 C17.72367187 46.42828125 18.00984375 45.7940625 18.3046875 45.140625 C19.66405542 42.64688799 20.84830309 42.09817876 23.4375 41.0625 C23.4375 42.7125 23.4375 44.3625 23.4375 46.0625 C22.1175 46.7225 20.7975 47.3825 19.4375 48.0625 C19.4375 48.7225 19.4375 49.3825 19.4375 50.0625 C15.28376076 52.13936962 10.90010161 52.06629856 6.4375 51.0625 C2.02650945 47.89912206 -2.58213562 44.01349581 -4.3359375 38.734375 C-4.41070312 38.18265625 -4.48546875 37.6309375 -4.5625 37.0625 C-5.2225 37.0625 -5.8825 37.0625 -6.5625 37.0625 C-10.42306201 27.74200028 -13.97883 18.49652428 -10.6953125 8.39453125 C-9.19713087 5.31034354 -7.06499135 3.37249201 -4.5625 1.0625 C-3.5625 0.0625 -3.5625 0.0625 0 0 Z " fill="#A31866" transform="translate(355.5625,200.9375)"/>
<path d="M0 0 C1.56640625 1.38671875 1.56640625 1.38671875 2.56640625 4.38671875 C1.92703125 4.22171875 1.28765625 4.05671875 0.62890625 3.88671875 C-4.96016637 2.9742171 -10.45003035 2.32074387 -15.43359375 5.38671875 C-19.63871222 12.02637949 -19.42026164 20.96965902 -17.76171875 28.39453125 C-17.0489796 30.75463918 -16.29239656 33.07613025 -15.43359375 35.38671875 C-18.56071002 32.82816908 -19.43561232 30.25389677 -20.43359375 26.38671875 C-20.78426476 22.70068824 -20.93524079 19.03481332 -21.08984375 15.3359375 C-21.20328125 14.36269531 -21.31671875 13.38945312 -21.43359375 12.38671875 C-22.09359375 12.05671875 -22.75359375 11.72671875 -23.43359375 11.38671875 C-23.10359375 17.65671875 -22.77359375 23.92671875 -22.43359375 30.38671875 C-22.76359375 30.38671875 -23.09359375 30.38671875 -23.43359375 30.38671875 C-24.66802653 25.56749319 -24.61731152 20.82630698 -24.62109375 15.88671875 C-24.63333984 15.04496094 -24.64558594 14.20320313 -24.65820312 13.3359375 C-24.67155119 7.68525788 -24.29586578 3.62144518 -20.55859375 -0.86328125 C-14.13363778 -6.15442146 -6.36735509 -4.1493723 0 0 Z " fill="#442688" transform="translate(363.43359375,198.61328125)"/>
<path d="M0 0 C2.65289449 1.08080887 4.16816454 2.17296924 6.1875 4.25 C11.08829304 9.04188653 16.57214519 12.61218774 23 15 C23 16.32 23 17.64 23 19 C20.18123443 21.42544944 18.29788898 23 14.5 23 C8.4299762 20.57199048 4.63155779 16.71785052 0.515625 11.8046875 C-1.02542772 9.91675177 -1.02542772 9.91675177 -3 8 C-2.67 7.01 -2.34 6.02 -2 5 C0.97 6.98 0.97 6.98 4 9 C3.34 8.071875 2.68 7.14375 2 6.1875 C0 3 0 3 0 0 Z " fill="#AE236B" transform="translate(54,433)"/>
<path d="M0 0 C1 2 1 2 0.375 5.0625 C-0.15860276 10.66532893 0.84121646 15.29703557 4.41015625 19.765625 C8.39018216 23.4916067 12.71257669 25.28888378 17.86328125 26.9453125 C20.45262756 28.22341763 21.00299021 29.34497947 22 32 C15.10156274 32 7.72913229 28.05694328 2.75 23.25 C1 21 1 21 1 19 C0.38125 18.690625 -0.2375 18.38125 -0.875 18.0625 C-2.25 17.375 -3.625 16.6875 -5 16 C-4.34 17.11375 -3.68 18.2275 -3 19.375 C-1 22.75 -1 22.75 -1 25 C-3.375 24.3125 -3.375 24.3125 -6 23 C-7.3125 20.375 -7.3125 20.375 -8 18 C-8.66 18 -9.32 18 -10 18 C-10.33 18.99 -10.66 19.98 -11 21 C-11.66 20.67 -12.32 20.34 -13 20 C-12.48050781 19.31035156 -11.96101563 18.62070312 -11.42578125 17.91015625 C-7.14557712 12.1425614 -3.28248859 6.39138404 0 0 Z " fill="#B11A6C" transform="translate(59,417)"/>
<path d="M0 0 C4.41941881 0.12786745 6.83949638 1.49501917 10.25 4.375 C12.03833692 6.3096125 13.6357106 8.2859196 15.25 10.375 C14.05375 10.045 12.8575 9.715 11.625 9.375 C8.07353524 8.50127681 4.9237418 7.94782072 1.25 8.375 C-0.91645292 10.01025533 -1.65788017 10.96784443 -2.26171875 13.63671875 C-2.31972656 14.43722656 -2.37773437 15.23773438 -2.4375 16.0625 C-2.50324219 16.87074219 -2.56898438 17.67898437 -2.63671875 18.51171875 C-2.67410156 19.12660156 -2.71148437 19.74148437 -2.75 20.375 C-5.61724686 19.80155063 -6.6114515 19.5135485 -8.75 17.375 C-9.37696674 12.7745298 -9.31636627 8.61070823 -7.375 4.375 C-4.15816327 0.41581633 -4.15816327 0.41581633 0 0 Z " fill="#353196" transform="translate(355.75,204.625)"/>
<path d="M0 0 C0.89203125 0.01804688 1.7840625 0.03609375 2.703125 0.0546875 C3.71632812 0.08949219 3.71632812 0.08949219 4.75 0.125 C4.75 0.785 4.75 1.445 4.75 2.125 C5.5853125 2.24875 5.5853125 2.24875 6.4375 2.375 C9.63294629 3.41136096 11.40216165 4.71370656 13.75 7.125 C14.5625 10.875 14.5625 10.875 14.75 14.125 C15.41 14.125 16.07 14.125 16.75 14.125 C16.80411124 16.54196872 16.84372278 18.95771787 16.875 21.375 C16.89175781 22.05691406 16.90851563 22.73882812 16.92578125 23.44140625 C16.96213482 27.1858235 16.82944349 29.94852727 14.75 33.125 C14.42 33.125 14.09 33.125 13.75 33.125 C13.70101562 32.135 13.65203125 31.145 13.6015625 30.125 C13.18727434 19.94314099 13.18727434 19.94314099 10.75 10.125 C8.88252737 8.73261953 8.88252737 8.73261953 6.75 8.125 C6.36070312 7.6196875 5.97140625 7.114375 5.5703125 6.59375 C2.72774657 4.30017749 0.1328914 4.83923235 -3.4375 4.9375 C-5.34595703 4.97810547 -5.34595703 4.97810547 -7.29296875 5.01953125 C-8.26878906 5.05433594 -9.24460938 5.08914062 -10.25 5.125 C-9.25 2.125 -9.25 2.125 -7.515625 0.9453125 C-4.86680319 -0.01374367 -2.80934533 -0.07393014 0 0 Z " fill="#C20A52" transform="translate(157.25,190.875)"/>
<path d="M0 0 C0.99 0.33 1.98 0.66 3 1 C3.02578125 1.90621094 3.0515625 2.81242188 3.078125 3.74609375 C3.39308497 10.51057502 3.87077283 16.10138689 7.0625 22.1328125 C8.03597263 24.07164548 8.54864333 25.88426559 9 28 C9.66 28 10.32 28 11 28 C14.28571429 35.42857143 14.28571429 35.42857143 15 39 C16.32 39.33 17.64 39.66 19 40 C18.34 40.66 17.68 41.32 17 42 C11.16686798 38.8056658 8.33846871 34.67069474 5 29 C4.59394531 28.33613281 4.18789063 27.67226562 3.76953125 26.98828125 C-0.89947548 18.67846061 -0.15859191 9.26881586 0 0 Z " fill="#272996" transform="translate(340,210)"/>
<path d="M0 0 C0.33 0.66 0.66 1.32 1 2 C1.66 2 2.32 2 3 2 C4.61949011 4.57213134 5.04408751 5.67669159 4.625 8.75 C4.315625 9.86375 4.315625 9.86375 4 11 C3.10796875 11.25007813 2.2159375 11.50015625 1.296875 11.7578125 C-2.12731844 13.04797069 -4.03633658 14.46184293 -6.75 16.875 C-12.04359197 21.27965293 -17.9261321 25 -25 25 C-24.03057858 22.54073093 -23.46193391 21.25875966 -21.1171875 19.9453125 C-20.37726563 19.67460937 -19.63734375 19.40390625 -18.875 19.125 C-11.49118703 16.08600302 -5.5936836 11.54251907 -1 5 C-0.13457301 2.27886497 -0.13457301 2.27886497 0 0 Z " fill="#9C256B" transform="translate(452,424)"/>
<path d="M0 0 C0.33 0 0.66 0 1 0 C1.06058594 0.98742187 1.12117188 1.97484375 1.18359375 2.9921875 C1.30927734 4.91417969 1.30927734 4.91417969 1.4375 6.875 C1.51871094 8.15117187 1.59992188 9.42734375 1.68359375 10.7421875 C1.79206027 13.88300152 1.79206027 13.88300152 3 16 C1.37380745 22.66439647 -0.98417746 28.4296655 -5 34 C-5.495 35.216875 -5.99 36.43375 -6.5 37.6875 C-7.99116101 40.98048055 -8.9409576 42.20676825 -12 44 C-11.34 42.02 -10.68 40.04 -10 38 C-11.98 39.98 -13.96 41.96 -16 44 C-16.66 43.67 -17.32 43.34 -18 43 C-17.52949219 42.55269531 -17.05898437 42.10539062 -16.57421875 41.64453125 C-13.11857889 38.28905486 -10.36592519 35.23376087 -8 31 C-7.34 30.67 -6.68 30.34 -6 30 C-1.01894257 20.85508988 -0.79943925 10.15077467 0 0 Z " fill="#A5135B" transform="translate(170,209)"/>
<path d="M0 0 C1.134375 0.020625 2.26875 0.04125 3.4375 0.0625 C3.7675 1.0525 4.0975 2.0425 4.4375 3.0625 C3.179375 3.330625 1.92125 3.59875 0.625 3.875 C-2.55210977 4.67208408 -4.64860587 5.24794981 -6.5625 8.0625 C-7.54525588 11.01076763 -7.69664725 12.98902504 -7.6875 16.0625 C-7.69007813 16.92875 -7.69265625 17.795 -7.6953125 18.6875 C-7.65844205 21.21261695 -7.65844205 21.21261695 -6.5625 24.0625 C-6.49509135 25.62368428 -6.47735544 27.1875252 -6.5 28.75 C-6.50902344 29.55824219 -6.51804687 30.36648437 -6.52734375 31.19921875 C-6.53894531 31.81410156 -6.55054688 32.42898437 -6.5625 33.0625 C-11.0563305 28.5686695 -11.77723932 22.97376217 -11.875 16.875 C-11.85250495 11.15375924 -10.94541675 7.54660578 -7 3.3125 C-6.195625 2.57 -5.39125 1.8275 -4.5625 1.0625 C-3.5625 0.0625 -3.5625 0.0625 0 0 Z " fill="#AC0F5B" transform="translate(355.5625,200.9375)"/>
<path d="M0 0 C2.1875 0.8125 2.1875 0.8125 3.1875 1.8125 C3.5625 4.6875 3.5625 4.6875 3.1875 7.8125 C0.8125 9.5625 0.8125 9.5625 -1.8125 10.8125 C-2.4725 11.4725 -3.1325 12.1325 -3.8125 12.8125 C-5.8125 12.625 -5.8125 12.625 -7.8125 11.8125 C-9.8125 8.8125 -9.8125 8.8125 -9.8125 6.375 C-8.08906201 1.95869015 -4.74617795 -0.31641186 0 0 Z " fill="#901367" transform="translate(390.8125,205.1875)"/>
<path d="M0 0 C1.32 0 2.64 0 4 0 C4 0.99 4 1.98 4 3 C6.31 3 8.62 3 11 3 C10.49287967 6.71888239 9.88391785 9.73454239 8 13 C6.35 12.67 4.7 12.34 3 12 C2.67 11.01 2.34 10.02 2 9 C-0.01508358 8.26676204 -0.01508358 8.26676204 -2 8 C-2.125 5.125 -2.125 5.125 -2 2 C-1.34 1.34 -0.68 0.68 0 0 Z " fill="#9C1162" transform="translate(117,205)"/>
<path d="M0 0 C0 3 0 3 -1 5 C-1.66 5 -2.32 5 -3 5 C-3.66 13.25 -4.32 21.5 -5 30 C-5.33 30 -5.66 30 -6 30 C-6.33 28.02 -6.66 26.04 -7 24 C-7.66 24 -8.32 24 -9 24 C-10.41514574 21.16970852 -10.20780992 18.71620867 -10.25 15.5625 C-10.28867188 13.83193359 -10.28867188 13.83193359 -10.328125 12.06640625 C-9.96552653 8.67783726 -9.52553967 8.08548352 -7 6 C-6.67 5.01 -6.34 4.02 -6 3 C-2.9375 1.3125 -2.9375 1.3125 0 0 Z " fill="#741B7F" transform="translate(137,212)"/>
<path d="M0 0 C0 3 0 3 -2.01171875 5.15625 C-2.89472656 5.9296875 -3.77773438 6.703125 -4.6875 7.5 C-5.55761719 8.2734375 -6.42773438 9.046875 -7.32421875 9.84375 C-13.72282609 15 -13.72282609 15 -17 15 C-17.66 16.32 -18.32 17.64 -19 19 C-21.16874252 18.49396008 -22.99967627 18.00016187 -25 17 C-24.505 15.515 -24.505 15.515 -24 14 C-21.62890625 12.89453125 -21.62890625 12.89453125 -18.5625 11.8125 C-12.82936948 9.57267481 -8.60595703 6.67050023 -3.9609375 2.671875 C-2 1 -2 1 0 0 Z " fill="#581E81" transform="translate(454,434)"/>
<path d="M0 0 C2.65289449 1.08080887 4.16816454 2.17296924 6.1875 4.25 C11.08829304 9.04188653 16.57214519 12.61218774 23 15 C23 16.32 23 17.64 23 19 C19.30581799 19 17.22163822 17.71820705 14 16 C14 15.34 14 14.68 14 14 C13.319375 13.79375 12.63875 13.5875 11.9375 13.375 C6.9335347 11.03271837 3.05665888 7.58498832 0 3 C0 2.01 0 1.02 0 0 Z " fill="#4E2688" transform="translate(54,433)"/>
<path d="M0 0 C3.13539458 0.62333888 4.8049184 2.10364522 6.96484375 4.390625 C9.08375058 7.73938684 9.23446903 10.46556897 9.21484375 14.390625 C9.22 15.421875 9.22515625 16.453125 9.23046875 17.515625 C8.9698354 20.33659778 8.41780719 21.99208218 6.96484375 24.390625 C6.80048828 23.06998047 6.80048828 23.06998047 6.6328125 21.72265625 C6.47425781 20.56121094 6.31570312 19.39976562 6.15234375 18.203125 C6.00152344 17.05457031 5.85070312 15.90601563 5.6953125 14.72265625 C4.61646302 9.80148722 3.16480841 7.19060144 -1.03515625 4.390625 C-3.32164473 4.14955174 -3.32164473 4.14955174 -5.72265625 4.265625 C-6.53089844 4.28367188 -7.33914062 4.30171875 -8.171875 4.3203125 C-8.78675781 4.34351563 -9.40164062 4.36671875 -10.03515625 4.390625 C-7.15664853 0.55261471 -4.80657217 -0.25062201 0 0 Z " fill="#B10D5A" transform="translate(155.03515625,200.609375)"/>
<path d="M0 0 C0.33 0.66 0.66 1.32 1 2 C-0.89123456 5.80785482 -3.33965847 8.55789422 -6.375 11.5 C-7.1690625 12.2734375 -7.963125 13.046875 -8.78125 13.84375 C-9.5134375 14.5553125 -10.245625 15.266875 -11 16 C-11.96037631 16.99803813 -12.91920138 17.99757705 -13.875 19 C-16 21 -16 21 -19 22 C-19.99 21.67 -20.98 21.34 -22 21 C-20.54464063 17.34578245 -18.79353215 15.94909145 -15.5 13.875 C-9.60758758 9.93240919 -4.85586574 5.13481973 0 0 Z " fill="#642081" transform="translate(459,435)"/>
<path d="M0 0 C2.23136824 2.23136824 2.43154805 3.26678022 3.1875 6.25 C4.86757173 11.43160738 7.3537546 14.2036486 12 17 C14.59542503 18.10732954 17.17712266 19.08146364 19.86328125 19.9453125 C22.45262756 21.22341763 23.00299021 22.34497947 24 25 C17.30436708 25 11.10249495 21.54001972 5.953125 17.32421875 C1.21353818 12.22095076 0 6.93188434 0 0 Z " fill="#A3286C" transform="translate(57,424)"/>
<path d="M0 0 C0.66 0.33 1.32 0.66 2 1 C0.7934375 2.36125 0.7934375 2.36125 -0.4375 3.75 C-2.47723477 6.18396923 -3.37398434 7.86992172 -4 11 C-4.97272675 12.35335895 -5.9739266 13.68662604 -7 15 C-8.76047231 18.00122433 -9.28081186 20.30110845 -9.4140625 23.765625 C-9.45273438 24.65507812 -9.49140625 25.54453125 -9.53125 26.4609375 C-9.5621875 27.38132813 -9.593125 28.30171875 -9.625 29.25 C-9.66367188 30.18585938 -9.70234375 31.12171875 -9.7421875 32.0859375 C-9.83624844 34.39043054 -9.92189399 36.69492013 -10 39 C-10.66 38.67 -11.32 38.34 -12 38 C-12.3690205 18.99544419 -12.3690205 18.99544419 -10 11 C-9.34 11 -8.68 11 -8 11 C-7.79375 10.29875 -7.5875 9.5975 -7.375 8.875 C-5.54218423 5.04274884 -3.09748481 2.89547493 0 0 Z " fill="#472587" transform="translate(144,206)"/>
<path d="M0 0 C1 2 1 2 0.875 5.5625 C0.78661541 11.61684459 2.66297963 16.99446944 6 22 C4.02 22.33 2.04 22.66 0 23 C-5.55580866 13.77448747 -5.55580866 13.77448747 -6 8 C-4.68 8.33 -3.36 8.66 -2 9 C-1.855625 7.700625 -1.71125 6.40125 -1.5625 5.0625 C-1.125 1.125 -1.125 1.125 0 0 Z " fill="#4A3D9C" transform="translate(354,215)"/>
<path d="M0 0 C0.99 0.33 1.98 0.66 3 1 C3.56604113 10.91200921 3.90131861 20.41202844 -2 29 C-4.171875 29.81640625 -4.171875 29.81640625 -6 30 C-6.66 29.01 -7.32 28.02 -8 27 C-9.65 28.32 -11.3 29.64 -13 31 C-13.66 30.67 -14.32 30.34 -15 30 C-10.7357974 24.27378508 -10.7357974 24.27378508 -7.3125 23 C-6.549375 23 -5.78625 23 -5 23 C-4.34 23.66 -3.68 24.32 -3 25 C1.23196371 17.5596173 1.75952547 10.45267982 2 2 C1.01 1.67 0.02 1.34 -1 1 C-0.67 0.67 -0.34 0.34 0 0 Z " fill="#6A1E73" transform="translate(400,293)"/>
<path d="M0 0 C0 0.66 0 1.32 0 2 C1.32 2.66 2.64 3.32 4 4 C4 4.99 4 5.98 4 7 C3.39414062 6.6390625 2.78828125 6.278125 2.1640625 5.90625 C-4.12560045 2.42274436 -8.84408182 1.3148589 -16 2 C-15.67 1.34 -15.34 0.68 -15 0 C-16.98 0.33 -18.96 0.66 -21 1 C-19 -2 -19 -2 -17.375 -2.6875 C-10.5060181 -3.59131341 -6.13462438 -3.06731219 0 0 Z " fill="#A21058" transform="translate(363,194)"/>
<path d="M0 0 C4.91593133 3.27728756 4.74462769 8.38071443 6 14 C6.33 10.04 6.66 6.08 7 2 C7.33 2 7.66 2 8 2 C8.21253726 9.63953371 8.20765821 16.64113929 6 24 C5.34 24.33 4.68 24.66 4 25 C4 23.68 4 22.36 4 21 C3.34 21.33 2.68 21.66 2 22 C1.97494385 21.44014404 1.9498877 20.88028809 1.92407227 20.3034668 C1.80796255 17.76458695 1.6853042 15.22606447 1.5625 12.6875 C1.52318359 11.80642578 1.48386719 10.92535156 1.44335938 10.01757812 C1.40146484 9.17001953 1.35957031 8.32246094 1.31640625 7.44921875 C1.26141968 6.27879028 1.26141968 6.27879028 1.20532227 5.0847168 C1.05874737 2.80670899 1.05874737 2.80670899 0 0 Z " fill="#761B70" transform="translate(157,207)"/>
<path d="M0 0 C0.66 2.31 1.32 4.62 2 7 C2.66 7 3.32 7 4 7 C5.72264494 10.29549466 7.29445932 13.33118845 8 17 C2.54288435 15.18096145 -0.79997719 9.78067901 -3.9375 5.125 C-5 3 -5 3 -5 1 C-2 0 -2 0 0 0 Z " fill="#E24F8A" transform="translate(39,351)"/>
<path d="M0 0 C0.89203125 0.01804688 1.7840625 0.03609375 2.703125 0.0546875 C3.71632812 0.08949219 3.71632812 0.08949219 4.75 0.125 C4.75 0.785 4.75 1.445 4.75 2.125 C6.07 2.455 7.39 2.785 8.75 3.125 C7.76 3.455 6.77 3.785 5.75 4.125 C7.07 5.445 8.39 6.765 9.75 8.125 C9.42 8.785 9.09 9.445 8.75 10.125 C8.21375 9.3 7.6775 8.475 7.125 7.625 C4.85997505 5.26698283 3.63754503 5.11417478 0.30078125 4.79296875 C-3.22750966 4.81080642 -6.72845592 4.91056227 -10.25 5.125 C-9.25 2.125 -9.25 2.125 -7.515625 0.9453125 C-4.86680319 -0.01374367 -2.80934533 -0.07393014 0 0 Z " fill="#B80951" transform="translate(157.25,190.875)"/>
<path d="M0 0 C2.35953094 2.35953094 2.49141413 3.77895617 3 7 C3.66 6.01 4.32 5.02 5 4 C5.37125 5.485 5.37125 5.485 5.75 7 C6.7883201 10.72127862 8.42070594 13.9333545 10.29296875 17.30078125 C10.64294922 18.14189453 10.64294922 18.14189453 11 19 C10.67 19.66 10.34 20.32 10 21 C7.25639138 20.71617842 6.22423304 20.26907965 4.4375 18.125 C1.78508038 12.3588704 0 6.35951471 0 0 Z " fill="#9C135C" transform="translate(335,220)"/>
<path d="M0 0 C3.73852773 1.92267141 5.8440463 4.01651135 8.3984375 7.3125 C11.18184839 10.24526464 14.60996095 12.29463163 17.98828125 14.484375 C18.98408203 15.23460937 18.98408203 15.23460937 20 16 C20 16.66 20 17.32 20 18 C12.45596401 17.11246635 8.15847943 12.34683356 3.515625 6.8046875 C1.97457228 4.91675177 1.97457228 4.91675177 0 3 C0 2.01 0 1.02 0 0 Z " fill="#562486" transform="translate(51,438)"/>
<path d="M0 0 C1.65 0 3.3 0 5 0 C3.70127848 4.81373954 1.87520666 7.72583176 -1.5 11.375 C-2.2940625 12.24898438 -3.088125 13.12296875 -3.90625 14.0234375 C-6 16 -6 16 -8 16 C-5.33333333 10.66666667 -2.66666667 5.33333333 0 0 Z " fill="#DA397D" transform="translate(469,352)"/>
<path d="M0 0 C-6.57695356 2.60243509 -12.51804063 3.50660779 -19.5625 3.6875 C-20.47580078 3.72166016 -21.38910156 3.75582031 -22.33007812 3.79101562 C-24.55298411 3.87248338 -26.7764676 3.93793798 -29 4 C-29.33 8.62 -29.66 13.24 -30 18 C-30.33 18 -30.66 18 -31 18 C-31.09036443 12.84922738 -30.78658774 8.10972353 -30 3 C-28.41058594 2.80083984 -28.41058594 2.80083984 -26.7890625 2.59765625 C-25.40101721 2.41946125 -24.01299769 2.2410654 -22.625 2.0625 C-21.92632812 1.97548828 -21.22765625 1.88847656 -20.5078125 1.79882812 C-16.63216425 1.33681872 -16.63216425 1.33681872 -13 0 C-11.54860491 -0.25217289 -10.08827997 -0.45485117 -8.625 -0.625 C-7.85414063 -0.72039062 -7.08328125 -0.81578125 -6.2890625 -0.9140625 C-3.96070211 -1.00147535 -2.23210595 -0.60747559 0 0 Z " fill="#9C9EC9" transform="translate(292,406)"/>
<path d="M0 0 C0.66 0.33 1.32 0.66 2 1 C2 1.33 2 1.66 2 2 C2.69867188 1.96519531 3.39734375 1.93039063 4.1171875 1.89453125 C5.02726562 1.86746094 5.93734375 1.84039062 6.875 1.8125 C7.77992188 1.77769531 8.68484375 1.74289063 9.6171875 1.70703125 C10.79667969 1.85205078 10.79667969 1.85205078 12 2 C12.99 3.485 12.99 3.485 14 5 C13.01 4.67 12.02 4.34 11 4 C2.48920832 3.5881875 -1.51978495 5.22415615 -8 11 C-9.01680311 11.98290968 -10.02738219 12.97334787 -11 14 C-11.33 13.01 -11.66 12.02 -12 11 C-10.37807179 9.35113941 -8.75236228 7.7059976 -7.125 6.0625 C-6.22007812 5.14597656 -5.31515625 4.22945312 -4.3828125 3.28515625 C-2 1 -2 1 0 0 Z " fill="#601D7B" transform="translate(146,198)"/>
<path d="M0 0 C0.33 0 0.66 0 1 0 C1.03738281 1.00160156 1.07476562 2.00320312 1.11328125 3.03515625 C1.52440002 12.88404312 1.52440002 12.88404312 5 22 C5.391875 22.804375 5.78375 23.60875 6.1875 24.4375 C6.455625 24.953125 6.72375 25.46875 7 26 C4.6875 25.4375 4.6875 25.4375 2 24 C-0.83727686 18.73460441 -1.42427848 14.53957594 -1.25 8.625 C-1.24484375 7.90183594 -1.2396875 7.17867187 -1.234375 6.43359375 C-1.15514881 1.15514881 -1.15514881 1.15514881 0 0 Z " fill="#951D5D" transform="translate(124,230)"/>
<path d="M0 0 C0.05406122 1.93719378 0.09282025 3.87481921 0.125 5.8125 C0.14820313 6.89144531 0.17140625 7.97039062 0.1953125 9.08203125 C0 12 0 12 -2 15 C-2.70164642 16.98799818 -3.37372872 18.98698517 -4 21 C-4.33 21 -4.66 21 -5 21 C-4.6865221 16.9981545 -4.35153259 12.99868322 -4 9 C-3.89171875 7.74123047 -3.89171875 7.74123047 -3.78125 6.45703125 C-3.59478007 4.62895994 -3.30763405 2.81162276 -3 1 C-1 0 -1 0 0 0 Z " fill="#242C9C" transform="translate(169,212)"/>
<path d="M0 0 C1.49642042 2.36276909 1.98319692 4.0828579 2.1875 6.875 C1.31336996 9.84704213 0.38637842 10.73892529 -2.1875 12.5 C-4.38470941 13.65091922 -6.57765641 14.7989642 -8.8125 15.875 C-5.19921875 11.1875 -5.19921875 11.1875 -3.8125 9.875 C-2.8225 9.875 -1.8325 9.875 -0.8125 9.875 C-1.4725 7.565 -2.1325 5.255 -2.8125 2.875 C-3.534375 3.019375 -4.25625 3.16375 -5 3.3125 C-8.90625 4.09375 -8.90625 4.09375 -12.8125 4.875 C-11.8125 2.875 -11.8125 2.875 -8.8125 1.875 C-8.4825 1.215 -8.1525 0.555 -7.8125 -0.125 C-2.58262448 -1.6030083 -2.58262448 -1.6030083 0 0 Z " fill="#543A8A" transform="translate(394.8125,203.125)"/>
<path d="M0 0 C1.670625 0.061875 1.670625 0.061875 3.375 0.125 C3.705 1.115 4.035 2.105 4.375 3.125 C3.116875 3.393125 1.85875 3.66125 0.5625 3.9375 C-4.37234422 5.17338691 -5.82468053 6.92452079 -8.625 11.125 C-9.285 9.805 -9.945 8.485 -10.625 7.125 C-3.625 0.125 -3.625 0.125 0 0 Z " fill="#BA0D59" transform="translate(355.625,200.875)"/>
<path d="M0 0 C6.70212766 1.93617021 6.70212766 1.93617021 9 5 C9 5.66 9 6.32 9 7 C8.360625 6.835 7.72125 6.67 7.0625 6.5 C1.36088438 5.56912398 -3.86695692 5.05519297 -9 8 C-6.19195732 5.03595495 -3.81684226 2.55500981 0 1 C0 0.67 0 0.34 0 0 Z " fill="#4D1F83" transform="translate(357,196)"/>
<path d="M0 0 C0.33 0 0.66 0 1 0 C1.40411219 7.43865777 1.04211882 12.71337802 -3.375 18.9375 C-5.62583049 20.40919686 -7.3722979 20.21305693 -10 20 C-9.236875 19.278125 -8.47375 18.55625 -7.6875 17.8125 C-2.42555795 12.30581646 -1.21320081 7.35056959 0 0 Z " fill="#9C1B5D" transform="translate(384,238)"/>
<path d="M0 0 C1.53145296 2.62534793 2.25972635 5.05547613 2.875 8 C3.725607 11.67681734 4.99534647 13.59627718 8 16 C6.68 15.67 5.36 15.34 4 15 C3.67 15.66 3.34 16.32 3 17 C-0.52982362 12.47741349 -1.53009306 9.72500506 -1 4 C-0.5 1.5625 -0.5 1.5625 0 0 Z " fill="#9A1863" transform="translate(129,232)"/>
<path d="M0 0 C1.32 0 2.64 0 4 0 C5.61949011 2.57213134 6.04408751 3.67669159 5.625 6.75 C5.41875 7.4925 5.2125 8.235 5 9 C3.125 8.6875 3.125 8.6875 1 8 C-1 5 -1 5 -0.625 2.3125 C-0.41875 1.549375 -0.2125 0.78625 0 0 Z " fill="#BD0553" transform="translate(382,209)"/>
<path d="M0 0 C0.33 1.32 0.66 2.64 1 4 C3.14681531 3.52525225 5.29243228 3.04508251 7.4375 2.5625 C8.63246094 2.29566406 9.82742188 2.02882813 11.05859375 1.75390625 C13.8704686 1.29933252 13.8704686 1.29933252 15 0 C17.35313555 -0.07271741 19.70833668 -0.08370868 22.0625 -0.0625 C23.35285156 -0.05347656 24.64320313 -0.04445313 25.97265625 -0.03515625 C26.97167969 -0.02355469 27.97070312 -0.01195312 29 0 C29 0.33 29 0.66 29 1 C28.3915625 1.02578125 27.783125 1.0515625 27.15625 1.078125 C20.32078589 1.52041974 13.98644009 2.85653491 7.39648438 4.62792969 C4.50064291 5.40233283 2.01399273 6 -1 6 C-0.67 4.02 -0.34 2.04 0 0 Z " fill="#7D80B8" transform="translate(450,310)"/>
<path d="M0 0 C3.95829688 -0.22822613 6.67851541 0.44949991 10.3125 2 C11.19550781 2.37125 12.07851562 2.7425 12.98828125 3.125 C13.65214844 3.41375 14.31601563 3.7025 15 4 C14.6875 6.875 14.6875 6.875 14 10 C13.01 10.66 12.02 11.32 11 12 C11 9.36 11 6.72 11 4 C8.69 4 6.38 4 4 4 C4 3.01 4 2.02 4 1 C2.68 0.67 1.36 0.34 0 0 Z " fill="#57267E" transform="translate(117,204)"/>
<path d="M0 0 C-0.70125 0.515625 -1.4025 1.03125 -2.125 1.5625 C-4.99012303 3.99162605 -7.2824333 6.53127823 -9.66796875 9.4140625 C-11 11 -11 11 -13 13 C-13.41518628 9.47091664 -12.99344202 7.9880551 -11.25 4.8125 C-7.79059814 0.48824768 -5.46994771 -0.30388598 0 0 Z " fill="#D0074D" transform="translate(350,193)"/>
<path d="M0 0 C-1 3 -1 3 -2.9375 4.25 C-7.39594903 5.34186507 -11.49715772 4.64701035 -16 4 C-16 3.34 -16 2.68 -16 2 C-15.22914063 1.93941406 -14.45828125 1.87882812 -13.6640625 1.81640625 C-12.15972656 1.69072266 -12.15972656 1.69072266 -10.625 1.5625 C-9.62726563 1.48128906 -8.62953125 1.40007812 -7.6015625 1.31640625 C-4.67763349 0.96079326 -3.00138805 0 0 0 Z " fill="#C00C4C" transform="translate(379,257)"/>
<path d="M0 0 C-1.37154504 2.95409701 -2.98863724 5.44008376 -5 8 C-6.65 7.67 -8.3 7.34 -10 7 C-7.88268985 1.88316713 -5.59548444 0 0 0 Z " fill="#712783" transform="translate(447,449)"/>
<path d="M0 0 C2 3.75 2 3.75 2 6 C2.99 6.33 3.98 6.66 5 7 C6.1875 9.5625 6.1875 9.5625 7 12 C4.625 11.3125 4.625 11.3125 2 10 C0.6875 7.375 0.6875 7.375 0 5 C-0.66 5 -1.32 5 -2 5 C-2.33 5.99 -2.66 6.98 -3 8 C-3.66 7.67 -4.32 7.34 -5 7 C-3.35 4.69 -1.7 2.38 0 0 Z " fill="#C92265" transform="translate(51,430)"/>
<path d="M0 0 C1.98 0 3.96 0 6 0 C5.45276317 3.37462715 4.9451 5.08235 3 8 C1.68 7.67 0.36 7.34 -1 7 C-0.67 4.69 -0.34 2.38 0 0 Z " fill="#BA0659" transform="translate(122,209)"/>
<path d="M0 0 C0.55171875 0.16371094 1.1034375 0.32742187 1.671875 0.49609375 C4.26614007 1.05760414 6.59835411 1.09739008 9.25 1.0625 C10.58804688 1.04896484 10.58804688 1.04896484 11.953125 1.03515625 C12.62859375 1.02355469 13.3040625 1.01195312 14 1 C11.55365451 4.86828381 11.55365451 4.86828381 9.0625 5.4609375 C8.0415625 5.41839844 8.0415625 5.41839844 7 5.375 C6.319375 5.36210937 5.63875 5.34921875 4.9375 5.3359375 C3 5 3 5 0 3 C0 2.01 0 1.02 0 0 Z " fill="#B50D56" transform="translate(133,247)"/>
<path d="M0 0 C4.59306496 1.4859916 7.43569245 3.85014682 11 7 C7.35202603 8.21599132 6.20645737 7.3327695 2.8515625 5.76953125 C0.29418674 4.70665567 -2.26322257 4.33375334 -5 4 C-5 3.67 -5 3.34 -5 3 C-3.02 3 -1.04 3 1 3 C0.67 2.01 0.34 1.02 0 0 Z " fill="#8B186D" transform="translate(359,201)"/>
<path d="M0 0 C0.3125 2.25 0.3125 2.25 0 5 C-2.3125 7.375 -2.3125 7.375 -5 9 C-5.99 8.67 -6.98 8.34 -8 8 C-7.505 7.21625 -7.01 6.4325 -6.5 5.625 C-4.83462035 3.21447673 -4.83462035 3.21447673 -5 1 C-3 0 -3 0 0 0 Z " fill="#3C288D" transform="translate(380,248)"/>
<path d="M0 0 C5.75 1.75 5.75 1.75 8 4 C10.8420966 10.6232119 11.24909181 15.95966433 10 23 C9.67 23 9.34 23 9 23 C8.98582031 22.2265625 8.97164063 21.453125 8.95703125 20.65625 C8.54626305 11.68596058 6.46023697 6.21467241 0 0 Z " fill="#4F3795" transform="translate(365,213)"/>
<path d="M0 0 C1.32 0.66 2.64 1.32 4 2 C4 2.66 4 3.32 4 4 C5.32 4.33 6.64 4.66 8 5 C8 5.99 8 6.98 8 8 C6.02 8 4.04 8 2 8 C1.01 5.69 0.02 3.38 -1 1 C-0.67 0.67 -0.34 0.34 0 0 Z " fill="#2B2993" transform="translate(130,249)"/>
<path d="M0 0 C1.875 0.3125 1.875 0.3125 4 1 C4.66 1.99 5.32 2.98 6 4 C4.68 3.67 3.36 3.34 2 3 C2 4.65 2 6.3 2 8 C0.68 7.67 -0.64 7.34 -2 7 C-2.33 5.35 -2.66 3.7 -3 2 C-2.01 2.33 -1.02 2.66 0 3 C0 2.01 0 1.02 0 0 Z " fill="#671E77" transform="translate(113,315)"/>
<path d="M0 0 C0 1.65 0 3.3 0 5 C-1.98 5.99 -1.98 5.99 -4 7 C-4 7.66 -4 8.32 -4 9 C-8.455 8.01 -8.455 8.01 -13 7 C-13 6.67 -13 6.34 -13 6 C-10.69 6 -8.38 6 -6 6 C-5.731875 5.38125 -5.46375 4.7625 -5.1875 4.125 C-4.0059864 2.01071251 -2.76412485 0 0 0 Z " fill="#9A105E" transform="translate(379,242)"/>
<path d="M0 0 C0.33 0 0.66 0 1 0 C1.05425226 2.39614126 1.09379027 4.79103853 1.125 7.1875 C1.15013672 8.19780273 1.15013672 8.19780273 1.17578125 9.22851562 C1.21538674 13.28807807 0.80020002 16.34998815 -1 20 C-2.16433435 16.29275943 -2.16731546 12.74235879 -2.1875 8.875 C-2.20167969 7.63492188 -2.21585937 6.39484375 -2.23046875 5.1171875 C-2 2 -2 2 0 0 Z " fill="#5D2573" transform="translate(386,232)"/>
<path d="M0 0 C2 1 2 1 3 2 C4.423125 1.938125 4.423125 1.938125 5.875 1.875 C9 2 9 2 10.6953125 3.5078125 C11.12585938 4.00023437 11.55640625 4.49265625 12 5 C10.66195312 4.96519531 10.66195312 4.96519531 9.296875 4.9296875 C7.54117188 4.90261719 7.54117188 4.90261719 5.75 4.875 C4.58984375 4.85179687 3.4296875 4.82859375 2.234375 4.8046875 C-0.82786046 4.9896051 -2.44202751 5.39176977 -5 7 C-5 6.01 -5 5.02 -5 4 C-2.5 1.8125 -2.5 1.8125 0 0 Z " fill="#791C6C" transform="translate(145,202)"/>
<path d="M0 0 C0.33 0.99 0.66 1.98 1 3 C2.32 2.67 3.64 2.34 5 2 C4.34 3.32 3.68 4.64 3 6 C1.0625 5.625 1.0625 5.625 -1 5 C-1.33 4.34 -1.66 3.68 -2 3 C-3.65 4.32 -5.3 5.64 -7 7 C-7.66 6.67 -8.32 6.34 -9 6 C-4.5 0 -4.5 0 0 0 Z " fill="#59237A" transform="translate(394,317)"/>
<path d="M0 0 C1.03253906 0.00676758 1.03253906 0.00676758 2.0859375 0.01367188 C3.76566335 0.02533664 5.44534375 0.04326729 7.125 0.0625 C7.125 0.7225 7.125 1.3825 7.125 2.0625 C7.929375 2.18625 8.73375 2.31 9.5625 2.4375 C10.408125 2.64375 11.25375 2.85 12.125 3.0625 C12.455 3.7225 12.785 4.3825 13.125 5.0625 C12.01125 4.5675 10.8975 4.0725 9.75 3.5625 C2.20952398 0.97615315 -6.01658209 1.83361404 -13.875 2.0625 C-13.875 1.7325 -13.875 1.4025 -13.875 1.0625 C-9.21962644 0.14157719 -4.72814567 -0.05955997 0 0 Z " fill="#7F82B9" transform="translate(434.875,273.9375)"/>
<path d="M0 0 C0.66 0 1.32 0 2 0 C2.185625 1.010625 2.37125 2.02125 2.5625 3.0625 C3.90258641 7.92651732 7.31121432 10.75505217 11 14 C6.96816185 14 6.09229257 12.58690342 3.25 9.8125 C2.43015625 9.03519531 1.6103125 8.25789063 0.765625 7.45703125 C-1 5 -1 5 -0.765625 2.19921875 C-0.38664062 1.11060547 -0.38664062 1.11060547 0 0 Z " fill="#AA166D" transform="translate(49,435)"/>
<path d="M0 0 C4.29 0.33 8.58 0.66 13 1 C12.67 1.99 12.34 2.98 12 4 C7.01137151 4.29344873 4.03770942 4.05887078 0 1 C0 0.67 0 0.34 0 0 Z " fill="#B30C54" transform="translate(361,248)"/>
<path d="M0 0 C0.33 0.66 0.66 1.32 1 2 C1.99 2 2.98 2 4 2 C2.73058503 5.91402949 1.48832306 7.79072873 -2 10 C-1.34 8.02 -0.68 6.04 0 4 C-1.98 5.98 -3.96 7.96 -6 10 C-6.66 9.67 -7.32 9.34 -8 9 C-7.50628906 8.51789063 -7.01257813 8.03578125 -6.50390625 7.5390625 C-5.86324219 6.90742188 -5.22257813 6.27578125 -4.5625 5.625 C-3.92441406 4.99851563 -3.28632813 4.37203125 -2.62890625 3.7265625 C-0.92117824 2.08276939 -0.92117824 2.08276939 0 0 Z " fill="#781B68" transform="translate(160,243)"/>
<path d="M0 0 C0.89203125 0.01804688 1.7840625 0.03609375 2.703125 0.0546875 C3.71632812 0.08949219 3.71632812 0.08949219 4.75 0.125 C4.75 0.455 4.75 0.785 4.75 1.125 C2.11 1.455 -0.53 1.785 -3.25 2.125 C-0.28 2.62 -0.28 2.62 2.75 3.125 C2.75 3.455 2.75 3.785 2.75 4.125 C-3.685 4.62 -3.685 4.62 -10.25 5.125 C-9.25 2.125 -9.25 2.125 -7.515625 0.9453125 C-4.86680319 -0.01374367 -2.80934533 -0.07393014 0 0 Z " fill="#9D1159" transform="translate(157.25,190.875)"/>
<path d="M0 0 C0.33 0.99 0.66 1.98 1 3 C-0.21484375 4.82421875 -0.21484375 4.82421875 -1.9375 6.6875 C-2.50339844 7.31011719 -3.06929687 7.93273437 -3.65234375 8.57421875 C-4.09707031 9.04472656 -4.54179687 9.51523438 -5 10 C-5.33 9.34 -5.66 8.68 -6 8 C-7.98 8.66 -9.96 9.32 -12 10 C-10 7 -10 7 -7.6875 6.125 C-4.32740622 4.71844912 -2.4461527 2.65582293 0 0 Z " fill="#A61257" transform="translate(160,246)"/>
<path d="M0 0 C0.33 0.66 0.66 1.32 1 2 C-0.7634375 2.061875 -0.7634375 2.061875 -2.5625 2.125 C-7.67389492 2.71722936 -10.50123478 5.42469929 -14 9 C-14.66 8.67 -15.32 8.34 -16 8 C-14.54405245 6.68485396 -13.08516421 5.37296283 -11.625 4.0625 C-10.81289063 3.33160156 -10.00078125 2.60070312 -9.1640625 1.84765625 C-5.73902883 -1.07660535 -4.30759463 -1.21496259 0 0 Z " fill="#631C74" transform="translate(373,321)"/>
<path d="M0 0 C1.31223496 3.93670488 0.24296256 6.12488144 -1 10 C-2.32 10.33 -3.64 10.66 -5 11 C-4.46884894 6.48521602 -2.63379708 3.65333143 0 0 Z " fill="#A6165C" transform="translate(161,227)"/>
<path d="M0 0 C0.66 0.33 1.32 0.66 2 1 C1.38125 1.78375 0.7625 2.5675 0.125 3.375 C-2.6882496 7.52504196 -3.26744459 12.12272322 -4 17 C-4.33 17 -4.66 17 -5 17 C-5.55689631 6.37771854 -5.55689631 6.37771854 -2 2 C-1.34 1.34 -0.68 0.68 0 0 Z " fill="#55227F" transform="translate(352,205)"/>
<path d="M0 0 C1.32 0.33 2.64 0.66 4 1 C4 1.66 4 2.32 4 3 C5.32 3.66 6.64 4.32 8 5 C8 5.99 8 6.98 8 8 C4.7 6.35 1.4 4.7 -2 3 C-1.34 2.01 -0.68 1.02 0 0 Z " fill="#912169" transform="translate(359,193)"/>
<path d="M0 0 C0.99 0.99 1.98 1.98 3 3 C1.02 5.31 -0.96 7.62 -3 10 C-3.99 9.67 -4.98 9.34 -6 9 C-4.73046875 7.53515625 -3.4609375 6.0703125 -2.19140625 4.60546875 C-0.79128769 2.89287029 -0.79128769 2.89287029 0 0 Z " fill="#B2397E" transform="translate(457,431)"/>
<path d="M0 0 C0.66 0 1.32 0 2 0 C1.88623383 2.12563103 1.75864369 4.2505261 1.625 6.375 C1.55539062 7.55835938 1.48578125 8.74171875 1.4140625 9.9609375 C1 13 1 13 -1 15 C-1 13.68 -1 12.36 -1 11 C-1.66 10.67 -2.32 10.34 -3 10 C-2.01 6.7 -1.02 3.4 0 0 Z " fill="#4D1D80" transform="translate(381,237)"/>
<path d="M0 0 C0.66 2.31 1.32 4.62 2 7 C1.01 7 0.02 7 -1 7 C-1 6.34 -1 5.68 -1 5 C-1.99 5 -2.98 5 -4 5 C-4.33 3.68 -4.66 2.36 -5 1 C-2 0 -2 0 0 0 Z " fill="#D3276F" transform="translate(39,351)"/>
<path d="M0 0 C-1.38877354 3.35620271 -2.91677965 5.07298728 -6 7 C-6.66 7 -7.32 7 -8 7 C-8 6.34 -8 5.68 -8 5 C-8.66 4.67 -9.32 4.34 -10 4 C-3.375 0 -3.375 0 0 0 Z " fill="#C00B4E" transform="translate(154,254)"/>
<path d="M0 0 C1.98 0 3.96 0 6 0 C6.33 0.99 6.66 1.98 7 3 C6.34 3.66 5.68 4.32 5 5 C2.73725212 4.64644564 1.04911148 4.02455574 -1 3 C-0.67 2.01 -0.34 1.02 0 0 Z " fill="#563A90" transform="translate(430,448)"/>
<path d="M0 0 C0.33 0.66 0.66 1.32 1 2 C0.690625 2.7425 0.38125 3.485 0.0625 4.25 C-1.13278785 7.34368621 -1.15290981 9.71243908 -1 13 C-1.99 12.34 -2.98 11.68 -4 11 C-4.33 11.66 -4.66 12.32 -5 13 C-5.66 12.67 -6.32 12.34 -7 12 C-4.69 8.04 -2.38 4.08 0 0 Z " fill="#B86AA3" transform="translate(59,417)"/>
<path d="M0 0 C3.33727786 1.17255709 5.77437487 2.18868404 8 5 C8 5.66 8 6.32 8 7 C8.99 7.66 9.98 8.32 11 9 C6.32197941 8.72482232 4.25361247 6.66806114 1.13671875 3.47265625 C0 2 0 2 0 0 Z " fill="#A9165F" transform="translate(355,243)"/>
<path d="M0 0 C1.32 0 2.64 0 4 0 C4.33 2.31 4.66 4.62 5 7 C3.68 7 2.36 7 1 7 C0.67 4.69 0.34 2.38 0 0 Z " fill="#AF0A59" transform="translate(388,205)"/>
<path d="M0 0 C0 3.49889647 -0.54120332 4.0553603 -2.75 6.625 C-3.26046875 7.23601562 -3.7709375 7.84703125 -4.296875 8.4765625 C-6.19607419 10.17538747 -7.51275949 10.5998787 -10 11 C-6.79239749 7.19364503 -3.59253891 3.45436433 0 0 Z " fill="#DF4383" transform="translate(43,440)"/>
<path d="M0 0 C0.59296875 0.22558594 1.1859375 0.45117188 1.796875 0.68359375 C0.86875 1.44671875 -0.059375 2.20984375 -1.015625 2.99609375 C-3.18588601 4.80207927 -5.25880565 6.63125665 -7.203125 8.68359375 C-7.533125 7.69359375 -7.863125 6.70359375 -8.203125 5.68359375 C-7.30284912 4.64827649 -6.38219465 3.6306521 -5.453125 2.62109375 C-4.68742188 1.76837891 -4.68742188 1.76837891 -3.90625 0.8984375 C-2.203125 -0.31640625 -2.203125 -0.31640625 0 0 Z " fill="#72177B" transform="translate(142.203125,203.31640625)"/>
<path d="M0 0 C1.32 0.66 2.64 1.32 4 2 C2.48065294 5.03869411 0.01995228 5.64410306 -3 7 C-3.66 7 -4.32 7 -5 7 C-4.60196439 4.11424181 -4.20990931 3.17810487 -1.9375 1.25 C-1.298125 0.8375 -0.65875 0.425 0 0 Z " fill="#862269" transform="translate(146,194)"/>
<path d="M0 0 C0.94875 0.04125 1.8975 0.0825 2.875 0.125 C2.25 2.0625 2.25 2.0625 0.875 4.125 C-2.25 4.875 -2.25 4.875 -5.125 5.125 C-5.125 0.85616396 -4.22482433 0.16899297 0 0 Z " fill="#2B2F8D" transform="translate(149.125,205.875)"/>
<path d="M0 0 C2.6875 -0.3125 2.6875 -0.3125 5 0 C3.86525052 3.40424844 3.03188696 4.21653709 0 6 C-0.99 5.67 -1.98 5.34 -3 5 C-1.8125 2.5 -1.8125 2.5 0 0 Z " fill="#B22F76" transform="translate(437,449)"/>
<path d="M0 0 C1.32 0 2.64 0 4 0 C4 4.62 4 9.24 4 14 C3.67 14 3.34 14 3 14 C2.67 10.04 2.34 6.08 2 2 C0.68 2.33 -0.64 2.66 -2 3 C-1.34 2.01 -0.68 1.02 0 0 Z " fill="#A10F60" transform="translate(398,295)"/>
<path d="M0 0 C2 1 2 1 2.8515625 3.06640625 C3.10679687 3.89011719 3.36203125 4.71382812 3.625 5.5625 C3.88539063 6.38878906 4.14578125 7.21507812 4.4140625 8.06640625 C4.60742188 8.70449219 4.80078125 9.34257812 5 10 C3.35 9.67 1.7 9.34 0 9 C-1.10844919 5.67465243 -0.84454356 3.37817425 0 0 Z " fill="#911767" transform="translate(341,231)"/>
<path d="M0 0 C0.33 0 0.66 0 1 0 C0.67 2.97 0.34 5.94 0 9 C-0.99 9 -1.98 9 -3 9 C-2.5020163 5.26512223 -2.12508244 3.18762365 0 0 Z " fill="#BA1255" transform="translate(170,225)"/>
<path d="M0 0 C1.16161779 2.86578759 0.9946154 4.01630163 0.00390625 7.015625 C-0.70958984 8.61664063 -0.70958984 8.61664063 -1.4375 10.25 C-1.91058594 11.32765625 -2.38367188 12.4053125 -2.87109375 13.515625 C-3.24363281 14.33546875 -3.61617187 15.1553125 -4 16 C-5.42690914 13.14618172 -4.53722061 11.59491527 -3.6875 8.5625 C-3.42324219 7.59441406 -3.15898437 6.62632812 -2.88671875 5.62890625 C-2 3 -2 3 0 0 Z " fill="#551E7C" transform="translate(168,224)"/>
<path d="M0 0 C1.98 0 3.96 0 6 0 C6.33 1.32 6.66 2.64 7 4 C6.13375 3.79375 5.2675 3.5875 4.375 3.375 C0.63571398 2.95952378 -1.54942141 3.60333724 -5 5 C-4 3 -4 3 -1 2 C-0.67 1.34 -0.34 0.68 0 0 Z " fill="#4C277F" transform="translate(387,203)"/>
<path d="M0 0 C3.625 -0.1875 3.625 -0.1875 7 0 C6.67 0.99 6.34 1.98 6 3 C3.36 3 0.72 3 -2 3 C-1.34 2.01 -0.68 1.02 0 0 Z " fill="#1F31A0" transform="translate(152,196)"/>
<path d="M0 0 C1.9375 0.375 1.9375 0.375 4 1 C4.33 1.66 4.66 2.32 5 3 C4.01 3 3.02 3 2 3 C2 3.99 2 4.98 2 6 C1.01 5.67 0.02 5.34 -1 5 C-1.33 4.01 -1.66 3.02 -2 2 C-1.34 2 -0.68 2 0 2 C0 1.34 0 0.68 0 0 Z " fill="#BD0558" transform="translate(111,312)"/>
<path d="M0 0 C0.66 0.33 1.32 0.66 2 1 C0.71937515 2.7074998 -0.61767557 4.37373596 -2 6 C-2.66 6 -3.32 6 -4 6 C-4 7.65 -4 9.3 -4 11 C-4.99 11.495 -4.99 11.495 -6 12 C-5.73781251 7.5428126 -5.42288711 5.48477302 -2.4375 2.0625 C-1.633125 1.381875 -0.82875 0.70125 0 0 Z " fill="#686BAD" transform="translate(62,277)"/>
<path d="M0 0 C2.3828125 0.0234375 2.3828125 0.0234375 5.125 0.375 C6.03507813 0.48585937 6.94515625 0.59671875 7.8828125 0.7109375 C8.93082031 0.85402344 8.93082031 0.85402344 10 1 C9.67 1.66 9.34 2.32 9 3 C7.63875 2.938125 7.63875 2.938125 6.25 2.875 C3.1217954 2.99531556 1.61385994 3.3914708 -1 5 C-1.33 4.01 -1.66 3.02 -2 2 C-1.34 1.34 -0.68 0.68 0 0 Z " fill="#4848A1" transform="translate(142,210)"/>
<path d="M0 0 C0.66 0.33 1.32 0.66 2 1 C2 1.66 2 2.32 2 3 C0.02 3.99 -1.96 4.98 -4 6 C-4 4.68 -4 3.36 -4 2 C-2.125 0.9375 -2.125 0.9375 0 0 Z " fill="#9E2F70" transform="translate(432,444)"/>
<path d="M0 0 C2 1 4 2 6 3 C6 3.66 6 4.32 6 5 C5.34 5 4.68 5 4 5 C3.67 5.66 3.34 6.32 3 7 C0 3.375 0 3.375 0 0 Z " fill="#5E1F85" transform="translate(54,433)"/>
<path d="M0 0 C0.33 0.66 0.66 1.32 1 2 C1.66 2 2.32 2 3 2 C3.66 3.65 4.32 5.3 5 7 C3.68 7.33 2.36 7.66 1 8 C0.67 5.36 0.34 2.72 0 0 Z " fill="#D1367D" transform="translate(452,424)"/>
<path d="M0 0 C2 2 2 2 2.1953125 3.9453125 C2.13020833 5.96354167 2.06510417 7.98177083 2 10 C1.01 10.33 0.02 10.66 -1 11 C-0.67 7.37 -0.34 3.74 0 0 Z " fill="#2F1B7F" transform="translate(375,227)"/>
<path d="M0 0 C0.66 1.32 1.32 2.64 2 4 C1.01 5.485 1.01 5.485 0 7 C0 6.34 0 5.68 0 5 C-0.66 5 -1.32 5 -2 5 C-2.33 5.99 -2.66 6.98 -3 8 C-3.66 7.67 -4.32 7.34 -5 7 C-3.35 4.69 -1.7 2.38 0 0 Z " fill="#CF4684" transform="translate(51,430)"/>
<path d="M0 0 C2.46324069 3.69486103 2.38991688 5.63293092 2 10 C1.01 10.99 0.02 11.98 -1 13 C-0.67 8.71 -0.34 4.42 0 0 Z " fill="#6D438B" transform="translate(450,419)"/>
<path d="M0 0 C2.97 0.99 5.94 1.98 9 3 C9 3.33 9 3.66 9 4 C6.36 4 3.72 4 1 4 C0.67 2.68 0.34 1.36 0 0 Z " fill="#C40E4F" transform="translate(133,247)"/>
<path d="M0 0 C-0.33 0.99 -0.66 1.98 -1 3 C-3.31 3.33 -5.62 3.66 -8 4 C-7.67 3.01 -7.34 2.02 -7 1 C-2.25 0 -2.25 0 0 0 Z " fill="#B22466" transform="translate(441,442)"/>
<path d="M0 0 C0.33 0.66 0.66 1.32 1 2 C-1.40983607 6.70491803 -1.40983607 6.70491803 -4 8 C-4.33 7.01 -4.66 6.02 -5 5 C-3.35 3.35 -1.7 1.7 0 0 Z " fill="#7D1D76" transform="translate(459,435)"/>
<path d="M0 0 C0.66 0 1.32 0 2 0 C2 0.99 2 1.98 2 3 C3.32 2.67 4.64 2.34 6 2 C5.67 2.66 5.34 3.32 5 4 C1.9375 4.625 1.9375 4.625 -1 5 C-0.67 3.35 -0.34 1.7 0 0 Z " fill="#B81A69" transform="translate(451,429)"/>
<path d="M0 0 C3.24208567 0.35049575 4.61527704 0.56221181 6.8125 3.0625 C7.204375 3.701875 7.59625 4.34125 8 5 C4.75791433 4.64950425 3.38472296 4.43778819 1.1875 1.9375 C0.795625 1.298125 0.40375 0.65875 0 0 Z " fill="#CC0F4D" transform="translate(354,254)"/>
<path d="M0 0 C0.66 0 1.32 0 2 0 C3.38232443 1.62626404 4.71937515 3.2925002 6 5 C3.36 5 0.72 5 -2 5 C-1.34 4.67 -0.68 4.34 0 4 C0 2.68 0 1.36 0 0 Z " fill="#342D96" transform="translate(364,252)"/>
<path d="M0 0 C1.83832664 3.10217621 2.47446226 5.39408679 2 9 C1.01 9.66 0.02 10.32 -1 11 C-1.14285714 3.57142857 -1.14285714 3.57142857 0 0 Z " fill="#881873" transform="translate(129,232)"/>
<path d="M0 0 C0.66 0.99 1.32 1.98 2 3 C-0.64 4.65 -3.28 6.3 -6 8 C-4.768606 4.30581799 -2.79208646 2.64890254 0 0 Z " fill="#861776" transform="translate(139,207)"/>
<path d="M0 0 C1.32 0 2.64 0 4 0 C3.34 1.32 2.68 2.64 2 4 C0.68 4 -0.64 4 -2 4 C-1.34 2.68 -0.68 1.36 0 0 Z " fill="#5A3491" transform="translate(439,452)"/>
<path d="M0 0 C0.33 1.32 0.66 2.64 1 4 C2.65 3.67 4.3 3.34 6 3 C5.67 3.66 5.34 4.32 5 5 C1.9375 5.625 1.9375 5.625 -1 6 C-0.67 4.02 -0.34 2.04 0 0 Z " fill="#9A9CC8" transform="translate(450,310)"/>
<path d="M0 0 C2.97 1.98 2.97 1.98 6 4 C5.01 5.485 5.01 5.485 4 7 C2 5.1875 2 5.1875 0 3 C0 2.01 0 1.02 0 0 Z " fill="#C11451" transform="translate(127,253)"/>
<path d="M0 0 C0 1.65 0 3.3 0 5 C-0.99 5.495 -0.99 5.495 -2 6 C-2 5.34 -2 4.68 -2 4 C-3.32 4.33 -4.64 4.66 -6 5 C-1.125 0 -1.125 0 0 0 Z " fill="#8A1768" transform="translate(379,242)"/>
<path d="M0 0 C3 3.75 3 3.75 3 6 C2.34 6 1.68 6 1 6 C0.67 6.99 0.34 7.98 0 9 C-1.10844919 5.67465243 -0.84454356 3.37817425 0 0 Z " fill="#92196B" transform="translate(349,229)"/>
<path d="M0 0 C2 2 2 2 2 6 C1.01 6.33 0.02 6.66 -1 7 C-2 4 -2 4 -1.0625 1.8125 C-0.5365625 0.9153125 -0.5365625 0.9153125 0 0 Z " fill="#262C92" transform="translate(156,223)"/>
<path d="M0 0 C1.98 1.65 3.96 3.3 6 5 C5.01 5.495 5.01 5.495 4 6 C1.375 4.5625 1.375 4.5625 -1 3 C-0.67 2.01 -0.34 1.02 0 0 Z " fill="#362291" transform="translate(365,209)"/>
<path d="M0 0 C3.23356015 1.21258505 4.00856305 2.01284458 6 5 C0.25 3.25 0.25 3.25 -2 1 C-1.34 0.67 -0.68 0.34 0 0 Z " fill="#5D1A7C" transform="translate(366,202)"/>
</svg>
